<svg width="411" height="120" viewBox="0 0 411 120" fill="none" xmlns="http://www.w3.org/2000/svg">
<path d="M410.5 119.999L408.329 108.658L399.593 116.209L410.5 119.999ZM10.4244 93.0393L0.47392 97.9151L9.52608 105.084L11.9923 94.2809L10.4244 93.0393ZM13.3534 92.7629C15.0408 90.7432 16.7321 88.7626 18.4271 86.8206L16.9203 85.5055C15.2158 87.4585 13.5151 89.45 11.8186 91.4805L13.3534 92.7629ZM23.7387 80.8731C25.5406 78.9021 27.3463 76.9736 29.1556 75.0871L27.7122 73.7027C25.8917 75.6009 24.075 77.541 22.2626 79.5237L23.7387 80.8731ZM34.6251 69.5223C36.5432 67.6186 38.4652 65.761 40.3906 63.9488L39.0199 62.4924C37.0814 64.3169 35.1468 66.1867 33.2162 68.1027L34.6251 69.5223ZM46.1771 58.6477C48.1723 56.8694 50.1709 55.1387 52.1727 53.4549L50.8852 51.9243C48.8687 53.6206 46.8556 55.3638 44.8463 57.1547L46.1771 58.6477ZM58.3052 48.4495C60.3784 46.8087 62.4545 45.217 64.5333 43.6736L63.341 42.0678C61.2456 43.6236 59.1531 45.2278 57.064 46.8813L58.3052 48.4495ZM71.0025 39.0306C73.1624 37.5335 75.3247 36.0873 77.4891 34.6911L76.4049 33.0104C74.2218 34.4188 72.0411 35.8773 69.8632 37.3869L71.0025 39.0306ZM84.277 30.4784C86.5416 29.1279 88.808 27.8307 91.0757 26.5859L90.1133 24.8327C87.8246 26.0891 85.5375 27.398 83.2526 28.7606L84.277 30.4784ZM98.1162 22.8898C100.477 21.7064 102.839 20.5783 105.202 19.5043L104.374 17.6836C101.988 18.7682 99.6035 19.9072 97.22 21.1019L98.1162 22.8898ZM112.484 16.364C114.929 15.3663 117.375 14.4252 119.819 13.5393L119.138 11.659C116.668 12.5539 114.198 13.5046 111.729 14.5122L112.484 16.364ZM127.321 10.9921C129.836 10.195 132.35 9.45495 134.862 8.77045L134.336 6.8408C131.798 7.53246 129.258 8.28021 126.717 9.08554L127.321 10.9921ZM142.546 6.84725C145.114 6.26085 147.68 5.73113 150.243 5.25652L149.879 3.28995C147.289 3.76956 144.696 4.30486 142.1 4.89743L142.546 6.84725ZM158.06 3.97679C160.668 3.60541 163.273 3.28971 165.873 3.02804L165.672 1.03809C163.045 1.30248 160.414 1.62148 157.778 1.99677L158.06 3.97679ZM173.76 2.39743C176.391 2.24112 179.017 2.13883 181.637 2.08881L181.599 0.0891792C178.953 0.139701 176.3 0.243036 173.642 0.400948L173.76 2.39743ZM189.54 2.09511C192.175 2.14928 194.805 2.25509 197.426 2.41076L197.545 0.414273C194.898 0.257099 192.243 0.150242 189.581 0.09553L189.54 2.09511ZM205.299 3.02858C207.923 3.28431 210.539 3.58878 213.146 3.94016L213.413 1.95809C210.782 1.60348 208.142 1.29616 205.493 1.03801L205.299 3.02858ZM220.952 5.13549C223.55 5.58087 226.139 6.07172 228.717 6.60619L229.123 4.64783C226.523 4.10875 223.911 3.61359 221.289 3.16423L220.952 5.13549ZM236.424 8.33967C238.986 8.96111 241.537 9.62452 244.076 10.3281L244.61 8.40068C242.051 7.69149 239.479 7.02263 236.895 6.39601L236.424 8.33967ZM251.658 12.5582C254.176 13.3414 256.681 14.1631 259.172 15.0212L259.824 13.1303C257.314 12.2657 254.79 11.4378 252.253 10.6484L251.658 12.5582ZM266.61 17.706C269.077 18.6372 271.53 19.6032 273.968 20.6021L274.726 18.7515C272.272 17.7457 269.801 16.7728 267.316 15.8348L266.61 17.706ZM281.247 23.7021C283.66 24.7681 286.056 25.8652 288.436 26.9917L289.291 25.184C286.897 24.0503 284.485 22.9459 282.056 21.8727L281.247 23.7021ZM295.549 30.4709C297.905 31.6604 300.243 32.8775 302.562 34.1203L303.507 32.3574C301.174 31.1071 298.821 29.8825 296.45 28.6855L295.549 30.4709ZM309.498 37.944C311.798 39.2476 314.078 40.5752 316.336 41.9251L317.362 40.2083C315.091 38.8507 312.798 37.5153 310.484 36.2041L309.498 37.944ZM323.083 46.0603C325.326 47.4698 327.547 48.9 329.745 50.3487L330.846 48.6789C328.636 47.2223 326.403 45.7842 324.147 44.3668L323.083 46.0603ZM336.293 54.7656C338.48 56.2748 340.642 57.8011 342.778 59.3422L343.948 57.7202C341.801 56.171 339.627 54.6368 337.429 53.1195L336.293 54.7656ZM349.14 64.0317C351.263 65.6297 353.358 67.2408 355.424 68.8628L356.659 67.2896C354.582 65.6594 352.477 64.0401 350.343 62.4339L349.14 64.0317ZM361.607 73.8181C363.658 75.4949 365.677 77.1806 367.664 78.8727L368.961 77.3499C366.964 75.6493 364.934 73.9552 362.874 72.27L361.607 73.8181ZM373.668 84.0877C375.658 85.852 377.613 87.6205 379.532 89.3905L380.888 87.9204C378.96 86.1415 376.995 84.3641 374.994 82.591L373.668 84.0877ZM385.289 94.8093C387.223 96.6664 389.115 98.522 390.964 100.373L392.379 98.9593C390.52 97.0987 388.618 95.2335 386.675 93.3668L385.289 94.8093ZM396.489 106.019C398.337 107.949 400.138 109.87 401.887 111.779L403.362 110.428C401.602 108.508 399.792 106.576 397.933 104.636L396.489 106.019Z" fill="#FDC55E"/>
</svg>
