<svg width="160" height="188" viewBox="0 0 160 188" fill="none" xmlns="http://www.w3.org/2000/svg">
<g opacity="0.3" filter="url(#filter0_f_111_408)">
<path d="M35.3316 112.657C31.9234 112.886 29.2922 111.738 28.1204 108.386C26.9555 105.066 28.3574 102.335 31.2547 99.7031C27.7386 98.5383 24.9835 96.8389 24.9564 92.8664C24.9341 89.4599 26.8178 87.2814 29.8085 85.8896C30.1227 85.8058 30.4302 85.7324 30.7444 85.6486C32.3603 85.4878 34.1429 85.457 35.2521 86.505C37.2832 88.4152 37.5597 87.0235 38.7686 85.3742C40.4294 83.0894 40.7977 81.97 38.0074 80.8123C36.993 80.3849 36.4599 78.8777 35.7156 77.8633C35.6223 77.4169 35.5291 76.9705 35.4293 76.5346C35.5645 73.3392 36.6553 70.6654 39.7917 69.2609C43.2715 67.7037 45.9837 69.0306 48.5924 71.8252C49.8266 68.0834 51.7317 65.297 55.6435 65.0557C58.9891 64.8608 61.0391 66.6525 62.2372 69.588C62.3028 69.9022 62.3584 70.2102 62.4241 70.5243C62.1479 71.9595 62.3392 73.7936 61.5153 74.7379C59.3001 77.2929 60.8997 77.5554 62.6704 78.8456C64.8012 80.3976 65.39 79.8739 66.5855 77.8267C67.2583 76.6609 68.8436 76.0196 70.0192 75.1298C70.3498 75.0415 70.687 74.9428 71.0177 74.8545C74.4617 74.5461 77.0732 75.7254 78.2646 79.0467C79.446 82.3619 78.1172 85.1079 75.233 87.7193C78.5711 88.9926 81.4543 90.5532 81.4818 94.5692C81.504 97.9757 79.6403 100.166 76.6964 101.615C76.3162 101.717 75.9425 101.808 75.5722 101.916C74.1652 101.698 72.4075 101.931 71.4266 101.163C69.3081 99.5032 68.8084 100.37 67.5698 102.42C66.3704 104.407 65.672 105.283 68.1605 106.416C69.2983 106.933 69.8725 108.595 70.694 109.728C70.7735 110.109 70.8529 110.489 70.9423 110.875C70.9781 114.304 69.6989 117.037 66.3533 118.401C63.0309 119.751 60.3705 118.672 57.9764 115.776C56.5427 119.44 54.5725 122.375 50.4974 122.503C47.3664 122.597 45.4163 120.866 44.1804 118.167C44.0803 117.688 43.9901 117.214 43.8834 116.745C43.8496 114.328 44.7695 112.215 46.3414 110.382C43.3889 108.071 40.6817 106.56 38.2454 111.19C37.9519 111.748 37.0326 111.985 36.3962 112.364C36.026 112.472 35.6788 112.565 35.3316 112.657ZM56.9644 111.726C55.8614 109.455 61.9811 108.127 57.9168 105.633C55.8447 104.363 54.8907 104.809 53.6486 106.843C51.0302 111.102 56.9725 109.176 56.9644 111.726ZM35.2956 98.6593C37.4254 97.7417 39.119 104.01 41.666 98.364C43.6859 93.8713 39.1373 95.6178 38.4152 93.7073C37.9058 95.7807 36.4038 96.8624 35.2956 98.6593ZM71.2681 89.1268C66.1142 86.7236 66.2211 86.8172 65.3488 87.9054C62.3354 91.6945 66.1366 92.0937 68.0163 94.1141C68.5203 91.8065 70.0178 90.5776 71.2681 89.1268ZM49.5895 75.6784C48.7084 77.6853 47.8909 79.3697 46.5094 80.9865C48.6167 80.5461 49.3625 85.2431 52.3755 81.4104C56.0967 76.6644 49.4918 78.218 49.5895 75.6784ZM51.5403 92.3245C50.9467 93.4517 49.1994 94.529 51.5827 95.3678C52.7893 95.7962 53.6714 97.4284 54.9432 94.9943C55.8107 93.3402 56.1166 92.6738 54.3158 91.7407C52.9643 91.0367 52.1199 90.337 51.5403 92.3245Z" fill="#F54748"/>
<path d="M61.8492 71.1098C61.7836 70.7957 61.7279 70.4876 61.6622 70.1735C61.7892 69.904 61.9957 69.6395 62.043 69.365C62.5855 65.7817 64.2194 63.0767 68.0328 62.5306C71.1344 62.0871 73.4498 63.4766 74.4626 66.4006C75.7099 69.9864 73.9995 72.6595 71.0282 74.77C70.8009 74.9354 70.6444 75.2303 70.4575 75.4634C70.1268 75.5516 69.7896 75.6503 69.4589 75.7385C66.2367 75.2716 63.7111 73.7113 61.8492 71.1098Z" fill="#F54748"/>
<path d="M71.5313 111.459C71.4518 111.079 71.3723 110.698 71.2828 110.312C71.8414 107.056 73.4828 104.472 76.1601 102.501C76.5404 102.399 76.9141 102.308 77.2843 102.201C78.2573 102.43 79.2496 102.584 80.1837 102.92C82.8266 103.873 84.4728 105.694 84.4556 108.7C84.4361 111.446 83.122 113.55 80.654 114.811C77.9483 116.187 75.5402 115.564 73.4858 113.669C72.7577 113.025 72.1774 112.212 71.5313 111.459Z" fill="#F54748"/>
<path d="M44.4625 116.172C44.5627 116.652 44.6529 117.125 44.7597 117.594C44.5404 118.298 44.3146 119.013 44.0853 119.711C43.1235 122.708 41.2788 124.78 38.0797 125.049C35.1455 125.291 32.9863 123.938 31.9454 121.214C30.8196 118.25 31.9213 115.714 34.2592 113.58C34.8084 113.076 35.3775 112.584 35.9266 112.079C36.2738 111.987 36.6274 111.884 36.9746 111.791C40.1132 112.193 42.5723 113.727 44.4625 116.172Z" fill="#F54748"/>
<path d="M30.1597 85.075C29.8455 85.1588 29.5379 85.2321 29.2238 85.3159C25.6343 84.5108 22.1002 83.5948 21.9836 78.9047C21.9104 76.1753 23.2076 74.0315 25.6923 72.7664C29.9391 70.6211 32.4567 73.1871 34.8666 75.9476C34.96 76.3939 35.0533 76.8403 35.1532 77.2761C34.475 80.5027 32.7506 83.066 30.1597 85.075Z" fill="#F54748"/>
<path d="M73.0593 128.699C71.3213 131.615 67.2214 132.709 64.5057 130.99C61.9299 129.356 61.118 125.514 62.781 122.741C64.5255 119.814 68.6088 118.725 71.3346 120.45C73.8938 122.088 74.7057 125.93 73.0593 128.699Z" fill="#F54748"/>
<path d="M14.7759 100.346C12.0378 98.7294 11.2171 94.6374 13.0789 91.8542C14.8522 89.1907 18.6615 88.2093 21.2697 89.7475C24.0078 91.3645 24.8285 95.4565 22.9667 98.2397C21.2034 100.909 17.384 101.885 14.7759 100.346Z" fill="#F54748"/>
<path d="M26.3968 111.342C24.7283 114.257 20.6586 115.412 17.92 113.752C15.3314 112.182 14.4733 108.371 16.0568 105.592C17.7252 102.677 21.795 101.521 24.5335 103.182C27.1321 104.758 27.9967 108.559 26.3968 111.342Z" fill="#F54748"/>
<path d="M84.7674 97.5974C82.1202 95.7468 81.5741 91.5904 83.6257 88.9225C85.6084 86.3428 89.486 85.6049 91.9498 87.3299C94.5971 89.1805 95.1367 93.3474 93.0916 96.0048C91.1189 98.5906 87.2413 99.3284 84.7674 97.5974Z" fill="#F54748"/>
<path d="M41.5953 56.4096C44.2192 57.8563 45.2225 61.6116 43.7325 64.4613C42.1937 67.4112 38.1652 68.7217 35.3549 67.1764C32.5746 65.6492 31.6482 61.5942 33.443 58.7417C35.1463 56.0358 38.9414 54.9448 41.5953 56.4096Z" fill="#F54748"/>
<path d="M90.2091 82.1379C88.4012 85.0114 84.2905 86.0121 81.6471 84.2216C79.1171 82.5142 78.4013 78.6735 80.1177 75.9466C81.9256 73.0732 86.0363 72.0725 88.6797 73.863C91.2097 75.5704 91.919 79.4216 90.2091 82.1379Z" fill="#F54748"/>
<path d="M55.2199 53.3303C57.9419 54.9952 58.703 59.0945 56.8013 61.8535C54.9814 64.5033 51.1516 65.429 48.586 63.8445C45.864 62.1795 45.103 58.0802 46.9947 55.3152C48.818 52.682 52.6544 51.7457 55.2199 53.3303Z" fill="#F54748"/>
<path d="M59.5889 131.929C57.8309 134.832 53.7405 135.889 51.0479 134.155C48.4851 132.5 47.7097 128.666 49.3862 125.915C51.1441 123.011 55.2245 121.949 57.9207 123.699C60.4834 125.354 61.2553 129.171 59.5889 131.929Z" fill="#F54748"/>
<path d="M19.934 118.749C22.2139 116.002 24.8336 115.382 27.6926 117.159C30.4218 118.857 30.9008 122.526 28.7463 125.204C26.4868 128.006 23.7395 128.434 21.0215 126.497C18.2502 124.513 18.1701 121.751 19.934 118.749Z" fill="#F54748"/>
<path d="M78.2455 127.458C75.5509 125.464 74.8561 122.892 76.612 119.771C78.2863 116.802 81.963 115.856 84.5903 117.738C87.3311 119.703 87.8652 122.466 85.9225 125.445C83.9768 128.451 81.2505 128.934 78.2455 127.458Z" fill="#F54748"/>
<path d="M19.5228 84.3938C17.4329 87.2555 14.8327 88.2198 11.881 86.4588C8.95927 84.716 8.33234 81.9683 10.2017 78.8861C12.0744 75.8206 14.8287 75.0508 17.7701 76.7622C20.7349 78.5022 21.1195 81.2186 19.5228 84.3938Z" fill="#F54748"/>
<path d="M45.8189 134.935C43.7586 137.772 41.1388 138.767 38.1813 137.104C35.2603 135.448 34.5872 132.73 36.227 129.552C37.7918 126.516 41.4551 125.46 44.1484 127.238C46.9752 129.111 47.4056 131.754 45.8189 134.935Z" fill="#F54748"/>
<path d="M88.401 110.792C85.7291 108.739 85.0904 106.143 86.8963 103.052C88.6206 100.114 92.3176 99.2239 94.9058 101.169C97.6073 103.196 98.0818 105.967 96.1057 108.911C94.0935 111.891 91.3599 112.298 88.401 110.792Z" fill="#F54748"/>
<path d="M28.2912 60.2337C30.9205 62.3332 31.5365 64.9873 29.5242 67.9673C27.5054 70.9579 24.6972 71.5501 21.8745 69.6942C19.0218 67.82 18.5999 65.0095 20.5857 62.0277C22.5976 59.0041 25.325 58.6516 28.2912 60.2337Z" fill="#F54748"/>
<path d="M70.0994 58.1297C67.7952 61.1358 65.1513 62.0158 62.2553 60.1876C59.3693 58.3655 58.8282 55.5686 60.7774 52.535C62.7267 49.5014 65.5248 48.8159 68.4204 50.6006C71.366 52.4156 71.5753 55.17 70.0994 58.1297Z" fill="#F54748"/>
<path d="M86.6194 68.5194C84.486 71.3403 81.9077 72.1591 78.9437 70.5061C76.1096 68.932 75.4287 65.2997 77.4698 62.5383C79.5828 59.6617 82.3217 59.027 85.138 60.8502C87.9844 62.6917 88.2664 65.418 86.6194 68.5194Z" fill="#F54748"/>
<path d="M5.13024 116.223C2.77168 114.374 1.94887 111.941 3.56235 109.225C5.17928 106.525 7.86326 105.756 10.4406 107.233C13.028 108.715 13.6343 111.406 12.0339 114.102C10.4404 116.83 7.86298 117.274 5.13024 116.223Z" fill="#F54748"/>
<path d="M24.8928 139.863C22.5807 138.028 21.7479 135.589 23.3679 132.862C24.9914 130.151 27.7019 129.384 30.2857 130.85C32.8831 132.338 33.4929 135.046 31.8959 137.759C30.2828 140.519 27.6989 140.972 24.8928 139.863Z" fill="#F54748"/>
<path d="M97.8641 115.025C99.8908 116.788 100.551 119.151 99.0235 121.905C97.6333 124.397 93.7739 125.304 91.7181 123.61C89.4519 121.745 89.0062 119.238 90.6432 116.55C92.0284 114.243 95.5349 113.526 97.8641 115.025Z" fill="#F54748"/>
<path d="M15.9164 70.7388C13.7868 73.2447 11.3149 74.1136 8.81168 72.4947C6.32846 70.8879 5.80804 68.1901 7.52893 65.5664C9.24329 62.9531 11.9424 62.2941 14.4487 63.886C16.9749 65.4901 17.1166 68.0882 15.9164 70.7388Z" fill="#F54748"/>
<path d="M81.4897 47.679C83.7983 49.4975 84.6211 51.9305 82.9877 54.6349C81.3707 57.3349 78.6767 58.0973 76.1059 56.6105C73.525 55.1178 72.9287 52.4324 74.5291 49.7368C76.1426 47.0203 78.71 46.5709 81.4897 47.679Z" fill="#F54748"/>
<path d="M52.9989 47.674C51.0908 50.1119 48.6628 51.0652 46.0747 49.5824C43.503 48.0953 42.8934 45.43 44.4878 42.7441C46.0887 40.0477 48.767 39.2895 51.3352 40.7602C53.9299 42.2325 54.2469 44.7925 52.9989 47.674Z" fill="#F54748"/>
<path d="M61.9308 145.035C59.8566 147.43 57.3652 148.331 54.842 146.7C52.3388 145.081 51.8115 142.35 53.5455 139.705C55.2829 137.077 58.0115 136.393 60.5312 138.007C63.0674 139.617 63.2822 142.231 61.9308 145.035Z" fill="#F54748"/>
<path d="M101.33 71.3069C103.642 73.1419 104.475 75.5809 102.855 78.308C101.231 81.0184 98.5209 81.7852 95.9335 80.3029C93.3361 78.8145 92.7328 76.0961 94.3397 73.39C95.9398 70.6509 98.5238 70.1971 101.33 71.3069Z" fill="#F54748"/>
<path d="M7.35031 93.7636C9.71689 95.776 10.4405 98.2354 8.70369 100.863C6.98993 103.475 4.29527 104.15 1.78983 102.559C-0.699072 100.963 -1.20931 98.2723 0.491012 95.6373C2.22093 92.977 4.78633 92.6852 7.35031 93.7636Z" fill="#F54748"/>
<path d="M99.0458 93.8009C96.7338 91.9659 95.9075 89.5164 97.5375 86.7955C99.161 84.085 101.872 83.3182 104.469 84.8066C107.066 86.295 107.66 89.0073 106.063 91.7194C104.429 94.4674 101.836 94.9151 99.0458 93.8009Z" fill="#F54748"/>
<path d="M39.6129 50.8122C37.6556 53.3069 35.2211 54.2707 32.6394 52.7774C30.0678 51.2903 29.4647 48.6146 31.0591 45.9286C32.66 43.2323 35.3317 42.4845 37.9064 43.9447C40.5212 45.4291 40.7986 48.0084 39.6129 50.8122Z" fill="#F54748"/>
<path d="M75.3666 141.856C73.3285 144.215 70.9455 145.008 68.3181 143.588C65.9305 142.314 65.2607 138.443 67.055 136.253C69.0331 133.858 71.6256 133.148 74.0796 134.824C76.5171 136.504 76.7249 139.085 75.3666 141.856Z" fill="#F54748"/>
<path d="M107.665 98.6777C109.984 100.459 110.447 102.717 108.7 105.252C106.922 107.811 104.53 108.179 102.169 106.531C99.9522 104.985 99.6179 102.718 101.165 100.307C102.835 97.6976 105.122 97.3231 107.665 98.6777Z" fill="#F54748"/>
<path d="M82.0669 140.133C79.6255 138.307 79.0498 136.096 80.7045 133.534C82.3591 130.972 84.6903 130.394 87.129 131.916C89.5778 133.444 89.9954 135.776 88.3873 138.351C86.7299 140.984 84.4426 141.271 82.0669 140.133Z" fill="#F54748"/>
<path d="M-1.28326 88.776C-3.54853 86.9983 -3.99856 84.7624 -2.24398 82.2612C-0.469789 79.7286 1.8932 79.3861 4.22693 81.0321C6.42729 82.5829 6.72164 84.8254 5.17467 87.1927C3.49387 89.7963 1.23351 90.1289 -1.28326 88.776Z" fill="#F54748"/>
<path d="M97.921 58.3467C100.255 60.0363 100.847 62.243 99.1632 64.8302C97.4624 67.4219 95.127 67.8966 92.7044 66.3266C90.4417 64.8535 90.0216 62.6358 91.4917 60.193C93.0926 57.5408 95.3385 57.055 97.921 58.3467Z" fill="#F54748"/>
<path d="M19.575 55.774C17.0748 54.0415 16.4033 51.8733 18.0376 49.2559C19.6754 46.6549 21.9735 46.0854 24.4322 47.6196C26.7176 49.0343 27.1903 51.2118 25.7867 53.6804C24.2558 56.375 22.023 56.8399 19.575 55.774Z" fill="#F54748"/>
<path d="M48.1877 147.927C46.1716 150.516 43.8996 151.087 41.5123 149.437C39.085 147.763 38.8752 145.341 40.6436 142.862C42.3105 140.523 44.5706 140.103 46.8599 141.535C49.3761 143.133 49.492 145.441 48.1877 147.927Z" fill="#F54748"/>
<path d="M8.5883 129.257C6.10396 127.433 5.55131 125.207 7.26552 122.638C8.98627 120.058 11.3285 119.617 13.7379 121.208C15.9875 122.702 16.3645 124.922 14.8844 127.359C13.2574 130.053 10.9871 130.379 8.5883 129.257Z" fill="#F54748"/>
<path d="M65.8992 44.4746C64.0174 46.8706 61.7818 47.4495 59.4044 45.8059C56.9971 44.144 56.7877 41.7648 58.5431 39.3066C60.1969 36.9889 62.4305 36.5676 64.6868 38.0079C67.1695 39.5711 67.3747 41.8466 65.8992 44.4746Z" fill="#F54748"/>
<path d="M95.6305 136.425C93.6932 134.63 93.1218 132.522 94.7105 130.397C96.25 128.328 98.5387 127.84 100.553 129.379C102.358 130.747 102.711 132.896 101.353 134.916C99.8678 137.118 97.729 137.322 95.6305 136.425Z" fill="#F54748"/>
<path d="M-4.00527 74.9636C-5.93661 73.4894 -6.51396 71.4794 -5.05847 69.2587C-3.73719 67.2308 -1.64433 66.6811 0.330899 67.8644C2.47601 69.1507 2.92223 71.3266 1.47673 73.5534C0.151993 75.5647 -1.83972 75.9303 -4.00527 74.9636Z" fill="#F54748"/>
<path d="M94.3259 45.3333C96.1296 46.6147 96.8746 48.4665 95.7701 50.6546C94.5514 53.0477 92.3674 53.7875 90.1604 52.6224C87.9334 51.4453 87.4404 49.2122 88.8159 46.943C90.0803 44.8518 92.0881 44.4383 94.3259 45.3333Z" fill="#F54748"/>
<path d="M111.778 118.127C110.224 120.173 108.183 121.015 106.018 119.759C103.862 118.51 103.409 116.257 104.772 114.008C106.033 111.944 108.176 111.337 110.19 112.371C112.421 113.521 112.754 115.658 111.778 118.127Z" fill="#F54748"/>
<path d="M10.5508 51.1521C12.3411 52.4109 13.0792 54.2297 11.9812 56.4074C10.7756 58.7797 8.61807 59.521 6.42102 58.362C4.22051 57.1865 3.71127 55.0013 5.08682 52.7321C6.35468 50.6574 8.32605 50.2361 10.5508 51.1521Z" fill="#F54748"/>
<path d="M17.7338 140.558C16.1834 142.577 14.1453 143.392 12.0197 142.117C9.90406 140.849 9.45737 138.629 10.8436 136.409C12.1187 134.367 14.2417 133.791 16.2328 134.84C18.4303 135.999 18.7667 138.109 17.7338 140.558Z" fill="#F54748"/>
<path d="M79.0278 40.777C77.6225 42.6967 75.7202 43.4923 73.653 42.4553C71.3894 41.3137 70.7904 39.1171 72.1197 36.8336C73.4456 34.5336 75.6877 33.9442 77.8402 35.2638C79.7962 36.4787 80.0622 38.5024 79.0278 40.777Z" fill="#F54748"/>
<path d="M28.5694 152.393C26.6673 150.85 26.0301 148.804 27.4724 146.604C28.9017 144.425 31.1505 143.912 33.2233 145.27C35.1062 146.513 35.542 148.639 34.3138 150.695C32.9648 152.965 30.864 153.351 28.5694 152.393Z" fill="#F54748"/>
<path d="M72.2443 155.806C70.3402 154.42 69.927 152.611 71.3636 150.509C72.666 148.599 74.4752 148.195 76.3209 149.343C78.3764 150.618 78.6712 152.529 77.2576 154.617C75.9621 156.559 74.2015 156.82 72.2443 155.806Z" fill="#F54748"/>
<path d="M113.746 69.2117C115.852 70.6479 116.391 72.389 115.018 74.5442C113.782 76.4795 112.02 76.9845 110.135 75.8993C108.064 74.7154 107.66 72.8685 108.984 70.7266C110.229 68.7538 111.963 68.4918 113.746 69.2117Z" fill="#F54748"/>
<path d="M62.9656 152.543C64.7398 153.849 65.2314 155.533 64.0259 157.53C62.7157 159.695 60.8447 160.22 58.7991 158.951C56.9434 157.797 56.5636 156.022 57.7427 154.023C59.0559 151.832 60.8885 151.456 62.9656 152.543Z" fill="#F54748"/>
<path d="M116.98 82.6274C119.086 84.0635 119.628 85.8212 118.249 87.9868C117.006 89.9326 115.238 90.448 113.333 89.3507C111.252 88.1608 110.835 86.2913 112.181 84.1345C113.417 82.1557 115.164 81.8727 116.98 82.6274Z" fill="#F54748"/>
<path d="M48.5123 33.6576C47.1292 35.4753 45.4339 36.0499 43.5613 34.8999C41.4988 33.6348 41.217 31.7027 42.6677 29.6661C43.9939 27.7849 45.8241 27.4799 47.6309 28.691C49.4578 29.9142 49.6054 31.664 48.5123 33.6576Z" fill="#F54748"/>
<path d="M111.775 60.8622C110.526 62.5306 108.888 63.2121 107.15 62.2881C105.216 61.2594 104.792 59.3564 106.034 57.4102C107.153 55.6629 108.956 55.2256 110.658 56.229C112.374 57.2549 112.557 58.9689 111.775 60.8622Z" fill="#F54748"/>
<path d="M61.7968 30.2877C60.4845 31.8597 58.8429 32.5247 57.167 31.5229C55.3212 30.4181 54.9368 28.4958 56.2499 26.6355C57.4157 24.989 59.2284 24.5578 60.8719 25.6554C62.5055 26.747 62.6428 28.4473 61.7968 30.2877Z" fill="#F54748"/>
<path d="M85.8012 152.439C84.176 151.093 83.6574 149.364 84.9863 147.456C86.1679 145.763 87.95 145.313 89.6157 146.352C91.4548 147.511 91.8122 149.387 90.5099 151.296C89.3252 153.017 87.6208 153.254 85.8012 152.439Z" fill="#F54748"/>
<path d="M30.1822 38.2266C28.2975 36.7662 27.8158 35.0885 29.0648 33.1323C30.4379 30.9772 32.3565 30.5963 34.3001 31.9624C36.0804 33.2151 36.2718 35.0488 34.9759 36.9477C33.654 38.8884 31.8988 39.0077 30.1822 38.2266Z" fill="#F54748"/>
<path d="M116.333 102.436C114.846 101 114.367 99.2522 115.793 97.4322C117.032 95.8452 118.841 95.4411 120.431 96.5786C122.158 97.828 122.45 99.7222 121.057 101.533C119.809 103.158 118.097 103.361 116.333 102.436Z" fill="#F54748"/>
<path d="M0.404611 130.181C-0.967626 131.717 -2.60651 132.311 -4.2927 131.26C-5.96889 130.215 -6.36875 128.428 -5.28022 126.662C-4.06746 124.698 -2.14907 124.23 -0.361808 125.472C1.23862 126.573 1.3532 128.331 0.404611 130.181Z" fill="#F54748"/>
<path d="M49.1954 155.767C50.9609 157.242 51.509 158.945 50.2232 160.85C49.0747 162.535 47.2961 163.001 45.6339 161.978C43.8019 160.853 43.4479 158.993 44.6971 157.08C45.8387 155.362 47.5607 155.252 49.1954 155.767Z" fill="#F54748"/>
<path d="M21.4572 39.9487C20.0618 41.4993 18.3998 42.1085 16.7428 40.9883C15.1093 39.8967 14.7721 38.0752 15.9371 36.3416C17.1057 34.6247 18.9149 34.1769 20.575 35.2701C22.2185 36.3678 22.3462 38.1055 21.4572 39.9487Z" fill="#F54748"/>
<path d="M113.996 131.027C112.747 132.652 111.277 133.132 109.73 132.166C108.184 131.199 107.862 129.618 108.902 127.997C109.942 126.375 111.517 125.972 113.069 126.928C114.632 127.89 114.778 129.423 113.996 131.027Z" fill="#F54748"/>
<path d="M36.4473 163.229C35.4131 164.753 34.2111 165.266 32.8733 164.628C31.3425 163.902 30.89 162.53 31.8077 160.95C32.7188 159.38 34.1245 159.049 35.5707 159.955C36.8669 160.77 36.8813 162.049 36.4473 163.229Z" fill="#F54748"/>
<path d="M14.8876 150.488C16.2618 148.794 17.7437 148.451 19.218 149.533C20.7223 150.633 20.7958 152.237 19.6289 153.752C18.5931 155.102 17.1504 155.382 15.7572 154.48C14.184 153.468 14.1348 151.98 14.8876 150.488Z" fill="#F54748"/>
<path d="M3.00069 143.05C1.93837 144.398 0.646304 144.857 -0.763872 143.915C-1.97413 143.095 -2.23068 141.784 -1.41331 140.475C-0.478231 138.977 0.924129 138.629 2.32085 139.548C3.55418 140.354 3.65467 141.628 3.00069 143.05Z" fill="#F54748"/>
<path d="M74.5248 26.6782C73.5375 27.8842 72.312 28.3683 71.0359 27.609C69.58 26.7406 69.3089 25.2768 70.3704 23.8414C71.2747 22.6139 72.6344 22.3123 73.8715 23.178C75.0852 24.015 75.1923 25.2782 74.5248 26.6782Z" fill="#F54748"/>
<path d="M91.4156 37.0489C90.0649 38.7707 88.5753 38.9936 87.1041 37.8849C85.7763 36.8777 85.6444 35.4118 86.6628 33.9793C87.8416 32.312 89.3881 32.1526 90.8593 33.2612C92.2101 34.2535 92.2025 35.6781 91.4156 37.0489Z" fill="#F54748"/>
<path d="M107.901 47.0587C106.621 48.5349 105.268 48.9131 103.947 47.8953C102.822 47.0258 102.592 45.6733 103.506 44.4083C104.531 42.9652 105.951 42.6999 107.285 43.6967C108.453 44.5635 108.421 45.8725 107.901 47.0587Z" fill="#F54748"/>
<path d="M7.40566 42.6534C6.43839 43.8715 5.20637 44.366 3.93386 43.6233C2.46489 42.7759 2.18723 41.3226 3.2253 39.8587C4.11607 38.6086 5.46915 38.3174 6.71588 39.1456C7.94954 39.9947 8.05653 41.2578 7.40566 42.6534Z" fill="#F54748"/>
<path d="M124.022 114.037C122.876 115.652 121.607 116.095 120.147 115.21C118.878 114.44 118.549 113.201 119.266 111.832C120.068 110.282 121.386 109.739 122.917 110.509C124.452 111.295 124.576 112.641 124.022 114.037Z" fill="#F54748"/>
<path d="M103.439 147.48C102.428 148.902 101.152 149.355 99.6928 148.47C98.4234 147.701 98.0946 146.462 98.8119 145.092C99.6139 143.543 100.938 142.989 102.463 143.769C103.961 144.548 104.211 145.869 103.439 147.48Z" fill="#F54748"/>
</g>
<defs>
<filter id="filter0_f_111_408" x="-21.8584" y="18.6836" width="150.182" height="150.213" filterUnits="userSpaceOnUse" color-interpolation-filters="sRGB">
<feFlood flood-opacity="0" result="BackgroundImageFix"/>
<feBlend mode="normal" in="SourceGraphic" in2="BackgroundImageFix" result="shape"/>
<feGaussianBlur stdDeviation="2" result="effect1_foregroundBlur_111_408"/>
</filter>
</defs>
</svg>
