<svg width="266" height="126" viewBox="0 0 266 126" fill="none" xmlns="http://www.w3.org/2000/svg">
<g filter="url(#filter0_d_35_665)">
<path d="M40 42.6042C40 30.1202 50.1202 20 62.6042 20H203.396C215.88 20 226 30.1202 226 42.6042C226 55.0881 215.88 65.2083 203.396 65.2083H62.6042C50.1202 65.2083 40 55.0881 40 42.6042Z" fill="white"/>
</g>
<path d="M97.6652 38.1559C96.99 38.1559 96.37 37.9975 95.8052 37.6806C95.2403 37.3637 94.7925 36.9262 94.4618 36.3682C94.1312 35.8034 93.9658 35.1661 93.9658 34.4566C93.9658 33.7539 94.1312 33.1236 94.4618 32.5656C94.7925 32.0007 95.2403 31.5598 95.8052 31.2429C96.37 30.926 96.99 30.7676 97.6652 30.7676C98.3472 30.7676 98.9672 30.926 99.5252 31.2429C100.09 31.5598 100.534 32.0007 100.858 32.5656C101.189 33.1236 101.354 33.7539 101.354 34.4566C101.354 35.1661 101.189 35.8034 100.858 36.3682C100.534 36.9262 100.09 37.3637 99.5252 37.6806C98.9603 37.9975 98.3403 38.1559 97.6652 38.1559ZM97.6652 36.8642C98.0992 36.8642 98.4815 36.7678 98.8122 36.5749C99.1428 36.3751 99.4012 36.0927 99.5872 35.7276C99.7732 35.3625 99.8662 34.9388 99.8662 34.4566C99.8662 33.9744 99.7732 33.5541 99.5872 33.1959C99.4012 32.8308 99.1428 32.5518 98.8122 32.3589C98.4815 32.166 98.0992 32.0696 97.6652 32.0696C97.2312 32.0696 96.8454 32.166 96.5078 32.3589C96.1772 32.5518 95.9188 32.8308 95.7328 33.1959C95.5468 33.5541 95.4538 33.9744 95.4538 34.4566C95.4538 34.9388 95.5468 35.3625 95.7328 35.7276C95.9188 36.0927 96.1772 36.3751 96.5078 36.5749C96.8454 36.7678 97.2312 36.8642 97.6652 36.8642Z" fill="#575757"/>
<path d="M107.835 32.3589V38.0836H106.378V37.3602C106.192 37.6082 105.947 37.8046 105.644 37.9492C105.348 38.087 105.024 38.1559 104.673 38.1559C104.225 38.1559 103.829 38.0629 103.484 37.8769C103.14 37.684 102.868 37.405 102.668 37.0399C102.475 36.6679 102.379 36.227 102.379 35.7172V32.3589H103.825V35.5106C103.825 35.9652 103.939 36.3166 104.166 36.5646C104.394 36.8057 104.704 36.9262 105.096 36.9262C105.496 36.9262 105.809 36.8057 106.037 36.5646C106.264 36.3166 106.378 35.9652 106.378 35.5106V32.3589H107.835Z" fill="#575757"/>
<path d="M110.709 33.2476C110.895 32.9445 111.136 32.7068 111.432 32.5346C111.735 32.3624 112.08 32.2762 112.465 32.2762V33.7952H112.083C111.628 33.7952 111.284 33.902 111.05 34.1156C110.822 34.3291 110.709 34.7011 110.709 35.2316V38.0836H109.262V32.3589H110.709V33.2476Z" fill="#575757"/>
<path d="M121.885 30.8709V38.0836H120.438V35.0146H117.349V38.0836H115.902V30.8709H117.349V33.8366H120.438V30.8709H121.885Z" fill="#575757"/>
<path d="M122.937 35.2006C122.937 34.6219 123.051 34.1087 123.278 33.6609C123.512 33.2131 123.826 32.8687 124.218 32.6276C124.618 32.3865 125.062 32.2659 125.551 32.2659C125.978 32.2659 126.35 32.352 126.667 32.5242C126.991 32.6965 127.249 32.9135 127.442 33.1752V32.3589H128.899V38.0836H127.442V37.2466C127.256 37.5152 126.998 37.7391 126.667 37.9182C126.344 38.0905 125.968 38.1766 125.541 38.1766C125.059 38.1766 124.618 38.0526 124.218 37.8046C123.826 37.5566 123.512 37.2087 123.278 36.7609C123.051 36.3062 122.937 35.7861 122.937 35.2006ZM127.442 35.2212C127.442 34.8699 127.373 34.5702 127.236 34.3222C127.098 34.0674 126.912 33.8745 126.678 33.7436C126.443 33.6058 126.192 33.5369 125.923 33.5369C125.655 33.5369 125.407 33.6024 125.179 33.7332C124.952 33.8641 124.766 34.057 124.621 34.3119C124.484 34.5599 124.415 34.8561 124.415 35.2006C124.415 35.545 124.484 35.8481 124.621 36.1099C124.766 36.3648 124.952 36.5611 125.179 36.6989C125.414 36.8367 125.662 36.9056 125.923 36.9056C126.192 36.9056 126.443 36.8401 126.678 36.7092C126.912 36.5715 127.098 36.3786 127.236 36.1306C127.373 35.8757 127.442 35.5726 127.442 35.2212Z" fill="#575757"/>
<path d="M131.759 33.1856C131.945 32.9238 132.2 32.7068 132.524 32.5346C132.854 32.3555 133.23 32.2659 133.65 32.2659C134.139 32.2659 134.58 32.3865 134.973 32.6276C135.372 32.8687 135.686 33.2131 135.913 33.6609C136.147 34.1018 136.264 34.615 136.264 35.2006C136.264 35.7861 136.147 36.3062 135.913 36.7609C135.686 37.2087 135.372 37.5566 134.973 37.8046C134.58 38.0526 134.139 38.1766 133.65 38.1766C133.23 38.1766 132.858 38.0905 132.534 37.9182C132.217 37.746 131.959 37.529 131.759 37.2672V40.8116H130.312V32.3589H131.759V33.1856ZM134.787 35.2006C134.787 34.8561 134.714 34.5599 134.57 34.3119C134.432 34.057 134.246 33.8641 134.012 33.7332C133.784 33.6024 133.536 33.5369 133.268 33.5369C133.006 33.5369 132.758 33.6058 132.524 33.7436C132.296 33.8745 132.11 34.0674 131.966 34.3222C131.828 34.5771 131.759 34.8768 131.759 35.2212C131.759 35.5657 131.828 35.8654 131.966 36.1202C132.11 36.3751 132.296 36.5715 132.524 36.7092C132.758 36.8401 133.006 36.9056 133.268 36.9056C133.536 36.9056 133.784 36.8367 134.012 36.6989C134.246 36.5611 134.432 36.3648 134.57 36.1099C134.714 35.855 134.787 35.5519 134.787 35.2006Z" fill="#575757"/>
<path d="M138.762 33.1856C138.948 32.9238 139.203 32.7068 139.527 32.5346C139.858 32.3555 140.233 32.2659 140.653 32.2659C141.142 32.2659 141.583 32.3865 141.976 32.6276C142.375 32.8687 142.689 33.2131 142.916 33.6609C143.15 34.1018 143.268 34.615 143.268 35.2006C143.268 35.7861 143.15 36.3062 142.916 36.7609C142.689 37.2087 142.375 37.5566 141.976 37.8046C141.583 38.0526 141.142 38.1766 140.653 38.1766C140.233 38.1766 139.861 38.0905 139.537 37.9182C139.22 37.746 138.962 37.529 138.762 37.2672V40.8116H137.316V32.3589H138.762V33.1856ZM141.79 35.2006C141.79 34.8561 141.718 34.5599 141.573 34.3119C141.435 34.057 141.249 33.8641 141.015 33.7332C140.788 33.6024 140.54 33.5369 140.271 33.5369C140.009 33.5369 139.761 33.6058 139.527 33.7436C139.3 33.8745 139.114 34.0674 138.969 34.3222C138.831 34.5771 138.762 34.8768 138.762 35.2212C138.762 35.5657 138.831 35.8654 138.969 36.1202C139.114 36.3751 139.3 36.5715 139.527 36.7092C139.761 36.8401 140.009 36.9056 140.271 36.9056C140.54 36.9056 140.788 36.8367 141.015 36.6989C141.249 36.5611 141.435 36.3648 141.573 36.1099C141.718 35.855 141.79 35.5519 141.79 35.2006Z" fill="#575757"/>
<path d="M149.795 32.3589L146.251 40.7909H144.711L145.951 37.9389L143.657 32.3589H145.28L146.757 36.3579L148.256 32.3589H149.795Z" fill="#575757"/>
<path d="M152.686 34.4669C152.686 33.7574 152.845 33.1236 153.162 32.5656C153.485 32.0007 153.923 31.5632 154.474 31.2532C155.032 30.9364 155.655 30.7779 156.344 30.7779C157.15 30.7779 157.856 30.9846 158.463 31.3979C159.069 31.8112 159.492 32.383 159.734 33.1132H158.07C157.905 32.7688 157.67 32.5105 157.367 32.3382C157.071 32.166 156.727 32.0799 156.334 32.0799C155.914 32.0799 155.538 32.1798 155.208 32.3796C154.884 32.5725 154.629 32.848 154.443 33.2062C154.264 33.5645 154.174 33.9847 154.174 34.4669C154.174 34.9422 154.264 35.3625 154.443 35.7276C154.629 36.0858 154.884 36.3648 155.208 36.5646C155.538 36.7575 155.914 36.8539 156.334 36.8539C156.727 36.8539 157.071 36.7678 157.367 36.5956C157.67 36.4165 157.905 36.1547 158.07 35.8102H159.734C159.492 36.5474 159.069 37.1226 158.463 37.5359C157.863 37.9424 157.157 38.1456 156.344 38.1456C155.655 38.1456 155.032 37.9906 154.474 37.6806C153.923 37.3637 153.485 36.9262 153.162 36.3682C152.845 35.8102 152.686 35.1765 152.686 34.4669Z" fill="#575757"/>
<path d="M166.374 32.3589V38.0836H164.917V37.3602C164.731 37.6082 164.486 37.8046 164.183 37.9492C163.887 38.087 163.563 38.1559 163.212 38.1559C162.764 38.1559 162.368 38.0629 162.023 37.8769C161.679 37.684 161.407 37.405 161.207 37.0399C161.014 36.6679 160.918 36.227 160.918 35.7172V32.3589H162.364V35.5106C162.364 35.9652 162.478 36.3166 162.705 36.5646C162.933 36.8057 163.243 36.9262 163.635 36.9262C164.035 36.9262 164.348 36.8057 164.576 36.5646C164.803 36.3166 164.917 35.9652 164.917 35.5106V32.3589H166.374Z" fill="#575757"/>
<path d="M169.992 38.1766C169.523 38.1766 169.103 38.0939 168.731 37.9286C168.359 37.7564 168.063 37.5256 167.842 37.2362C167.629 36.9469 167.512 36.6266 167.491 36.2752H168.948C168.975 36.4957 169.082 36.6782 169.268 36.8229C169.461 36.9676 169.699 37.0399 169.981 37.0399C170.257 37.0399 170.47 36.9848 170.622 36.8746C170.78 36.7644 170.86 36.6231 170.86 36.4509C170.86 36.2649 170.763 36.1271 170.57 36.0376C170.384 35.9411 170.085 35.8378 169.671 35.7276C169.244 35.6242 168.893 35.5175 168.617 35.4072C168.349 35.297 168.114 35.1282 167.915 34.9009C167.722 34.6736 167.625 34.367 167.625 33.9812C167.625 33.6644 167.715 33.375 167.894 33.1132C168.08 32.8515 168.342 32.6448 168.679 32.4932C169.024 32.3417 169.427 32.2659 169.888 32.2659C170.57 32.2659 171.114 32.4381 171.521 32.7826C171.927 33.1201 172.151 33.5782 172.193 34.1569H170.808C170.787 33.9296 170.691 33.7505 170.519 33.6196C170.353 33.4818 170.129 33.4129 169.847 33.4129C169.585 33.4129 169.382 33.4611 169.237 33.5576C169.099 33.654 169.031 33.7884 169.031 33.9606C169.031 34.1535 169.127 34.3016 169.32 34.4049C169.513 34.5014 169.812 34.6012 170.219 34.7046C170.632 34.8079 170.973 34.9147 171.242 35.0249C171.511 35.1351 171.741 35.3074 171.934 35.5416C172.134 35.7689 172.237 36.072 172.244 36.4509C172.244 36.7816 172.151 37.0778 171.965 37.3396C171.786 37.6014 171.524 37.808 171.18 37.9596C170.842 38.1042 170.446 38.1766 169.992 38.1766Z" fill="#575757"/>
<path d="M175.116 33.5472V36.3166C175.116 36.5095 175.161 36.6507 175.25 36.7402C175.347 36.8229 175.505 36.8642 175.726 36.8642H176.397V38.0836H175.488C174.269 38.0836 173.659 37.4911 173.659 36.3062V33.5472H172.977V32.3589H173.659V30.9432H175.116V32.3589H176.397V33.5472H175.116Z" fill="#575757"/>
<path d="M179.98 38.1766C179.429 38.1766 178.933 38.056 178.492 37.8149C178.051 37.5669 177.703 37.219 177.448 36.7712C177.2 36.3235 177.076 35.8068 177.076 35.2212C177.076 34.6357 177.204 34.119 177.459 33.6712C177.72 33.2235 178.075 32.879 178.523 32.6379C178.971 32.3899 179.47 32.2659 180.021 32.2659C180.572 32.2659 181.072 32.3899 181.52 32.6379C181.967 32.879 182.319 33.2235 182.574 33.6712C182.835 34.119 182.966 34.6357 182.966 35.2212C182.966 35.8068 182.832 36.3235 182.563 36.7712C182.301 37.219 181.943 37.5669 181.489 37.8149C181.041 38.056 180.538 38.1766 179.98 38.1766ZM179.98 36.9159C180.242 36.9159 180.486 36.8539 180.714 36.7299C180.948 36.599 181.134 36.4061 181.272 36.1512C181.409 35.8964 181.478 35.5864 181.478 35.2212C181.478 34.677 181.334 34.2602 181.044 33.9709C180.762 33.6747 180.414 33.5266 180.001 33.5266C179.587 33.5266 179.239 33.6747 178.957 33.9709C178.681 34.2602 178.544 34.677 178.544 35.2212C178.544 35.7655 178.678 36.1857 178.947 36.4819C179.222 36.7712 179.567 36.9159 179.98 36.9159Z" fill="#575757"/>
<path d="M191.137 32.2762C191.839 32.2762 192.404 32.4932 192.831 32.9272C193.265 33.3544 193.482 33.9537 193.482 34.7252V38.0836H192.036V34.9216C192.036 34.4738 191.922 34.1328 191.695 33.8986C191.467 33.6575 191.157 33.5369 190.765 33.5369C190.372 33.5369 190.059 33.6575 189.824 33.8986C189.597 34.1328 189.483 34.4738 189.483 34.9216V38.0836H188.037V34.9216C188.037 34.4738 187.923 34.1328 187.696 33.8986C187.468 33.6575 187.158 33.5369 186.766 33.5369C186.366 33.5369 186.049 33.6575 185.815 33.8986C185.588 34.1328 185.474 34.4738 185.474 34.9216V38.0836H184.027V32.3589H185.474V33.0512C185.66 32.8101 185.898 32.6207 186.187 32.4829C186.483 32.3451 186.807 32.2762 187.158 32.2762C187.606 32.2762 188.006 32.3727 188.357 32.5656C188.708 32.7516 188.981 33.0202 189.173 33.3716C189.359 33.0409 189.628 32.7757 189.979 32.5759C190.338 32.3761 190.723 32.2762 191.137 32.2762Z" fill="#575757"/>
<path d="M200.177 35.0972C200.177 35.3039 200.163 35.4899 200.136 35.6552H195.951C195.985 36.0686 196.13 36.3924 196.385 36.6266C196.639 36.8608 196.953 36.9779 197.325 36.9779C197.862 36.9779 198.245 36.7471 198.472 36.2856H200.032C199.867 36.8367 199.55 37.2914 199.082 37.6496C198.613 38.0009 198.038 38.1766 197.356 38.1766C196.805 38.1766 196.309 38.056 195.868 37.8149C195.434 37.5669 195.093 37.219 194.845 36.7712C194.604 36.3235 194.483 35.8068 194.483 35.2212C194.483 34.6288 194.604 34.1087 194.845 33.6609C195.086 33.2131 195.424 32.8687 195.858 32.6276C196.292 32.3865 196.791 32.2659 197.356 32.2659C197.9 32.2659 198.386 32.383 198.813 32.6172C199.247 32.8515 199.581 33.1856 199.815 33.6196C200.056 34.0467 200.177 34.5392 200.177 35.0972ZM198.679 34.6839C198.672 34.3119 198.537 34.0157 198.276 33.7952C198.014 33.5679 197.693 33.4542 197.315 33.4542C196.956 33.4542 196.653 33.5645 196.405 33.7849C196.164 33.9985 196.016 34.2981 195.961 34.6839H198.679Z" fill="#575757"/>
<path d="M202.68 33.2476C202.866 32.9445 203.107 32.7068 203.403 32.5346C203.706 32.3624 204.05 32.2762 204.436 32.2762V33.7952H204.054C203.599 33.7952 203.255 33.902 203.021 34.1156C202.793 34.3291 202.68 34.7011 202.68 35.2316V38.0836H201.233V32.3589H202.68V33.2476Z" fill="#575757"/>
<path d="M108.177 54.4202V53.5677L110.711 49.9407H111.974V53.4747H112.656V54.4202H111.974V55.5207H110.889V54.4202H108.177ZM110.959 51.1032L109.37 53.4747H110.959V51.1032Z" fill="#575757"/>
<path d="M113.952 55.575C113.755 55.575 113.592 55.5156 113.463 55.3967C113.339 55.2727 113.277 55.1203 113.277 54.9395C113.277 54.7586 113.339 54.6088 113.463 54.49C113.592 54.366 113.755 54.304 113.952 54.304C114.143 54.304 114.3 54.366 114.424 54.49C114.548 54.6088 114.61 54.7586 114.61 54.9395C114.61 55.1203 114.548 55.2727 114.424 55.3967C114.3 55.5156 114.143 55.575 113.952 55.575Z" fill="#575757"/>
<path d="M116.616 53.932C116.657 54.1593 116.75 54.335 116.895 54.459C117.045 54.5778 117.243 54.6372 117.491 54.6372C117.812 54.6372 118.044 54.5055 118.189 54.242C118.334 53.9733 118.406 53.5238 118.406 52.8935C118.287 53.0588 118.119 53.188 117.902 53.281C117.69 53.374 117.46 53.4205 117.212 53.4205C116.882 53.4205 116.582 53.3533 116.313 53.219C116.05 53.0795 115.841 52.8754 115.686 52.6067C115.531 52.3329 115.453 52.0022 115.453 51.6147C115.453 51.0412 115.624 50.5866 115.965 50.2507C116.306 49.9097 116.771 49.7392 117.36 49.7392C118.093 49.7392 118.61 49.9743 118.91 50.4445C119.215 50.9146 119.367 51.6225 119.367 52.568C119.367 53.2396 119.308 53.7899 119.189 54.2187C119.075 54.6476 118.876 54.9731 118.592 55.1952C118.313 55.4174 117.931 55.5285 117.445 55.5285C117.063 55.5285 116.737 55.4561 116.468 55.3115C116.2 55.1616 115.993 54.9679 115.848 54.7302C115.709 54.4874 115.629 54.2213 115.608 53.932H116.616ZM117.437 52.537C117.706 52.537 117.918 52.4543 118.073 52.289C118.228 52.1236 118.305 51.9015 118.305 51.6225C118.305 51.3176 118.223 51.0826 118.057 50.9172C117.897 50.7467 117.677 50.6615 117.398 50.6615C117.119 50.6615 116.897 50.7493 116.732 50.925C116.572 51.0955 116.492 51.3228 116.492 51.607C116.492 51.8808 116.569 52.1056 116.724 52.2812C116.884 52.4517 117.122 52.537 117.437 52.537Z" fill="#575757"/>
<path d="M125.904 56.9622C125.408 56.4766 125.021 55.8591 124.742 55.11C124.468 54.3608 124.331 53.5522 124.331 52.6842C124.331 51.7956 124.476 50.9663 124.765 50.1965C125.06 49.4215 125.478 48.7834 126.021 48.2822H126.757V48.352C126.178 48.8945 125.742 49.5481 125.447 50.3127C125.158 51.0722 125.013 51.8627 125.013 52.6842C125.013 53.4851 125.15 54.2497 125.424 54.9782C125.703 55.7067 126.108 56.3448 126.641 56.8925V56.9622H125.904Z" fill="#575757"/>
<path d="M127.308 50.5607V49.9175H128.765V55.5207H128.052V50.5607H127.308Z" fill="#575757"/>
<path d="M130.317 55.5672C130.183 55.5672 130.069 55.5207 129.976 55.4277C129.883 55.3347 129.837 55.2211 129.837 55.0867C129.837 54.9524 129.883 54.8387 129.976 54.7457C130.069 54.6527 130.183 54.6062 130.317 54.6062C130.447 54.6062 130.555 54.6527 130.643 54.7457C130.736 54.8387 130.782 54.9524 130.782 55.0867C130.782 55.2211 130.736 55.3347 130.643 55.4277C130.555 55.5207 130.447 55.5672 130.317 55.5672Z" fill="#575757"/>
<path d="M132.51 54.0172C132.562 54.3117 132.681 54.5391 132.867 54.6992C133.058 54.8594 133.314 54.9395 133.634 54.9395C134.063 54.9395 134.378 54.7716 134.58 54.4357C134.786 54.0999 134.884 53.5341 134.874 52.7385C134.766 52.971 134.585 53.1544 134.332 53.2887C134.078 53.4179 133.797 53.4825 133.487 53.4825C133.141 53.4825 132.831 53.4127 132.557 53.2732C132.288 53.1286 132.076 52.9193 131.921 52.6455C131.766 52.3716 131.689 52.041 131.689 51.6535C131.689 51.1006 131.849 50.6563 132.169 50.3205C132.49 49.9795 132.944 49.809 133.533 49.809C134.257 49.809 134.763 50.0441 135.052 50.5142C135.347 50.9844 135.494 51.6845 135.494 52.6145C135.494 53.2655 135.435 53.8028 135.316 54.2265C135.202 54.6501 135.006 54.9731 134.727 55.1952C134.453 55.4174 134.076 55.5285 133.595 55.5285C133.068 55.5285 132.658 55.3864 132.363 55.1022C132.069 54.8181 131.901 54.4564 131.859 54.0172H132.51ZM133.603 52.8857C133.949 52.8857 134.233 52.7798 134.456 52.568C134.678 52.351 134.789 52.0591 134.789 51.6922C134.789 51.3047 134.68 50.9921 134.463 50.7545C134.246 50.5168 133.941 50.398 133.549 50.398C133.187 50.398 132.898 50.5116 132.681 50.739C132.469 50.9663 132.363 51.266 132.363 51.638C132.363 52.0151 132.469 52.3174 132.681 52.5447C132.893 52.7721 133.2 52.8857 133.603 52.8857Z" fill="#575757"/>
<path d="M137.508 52.6067C137.219 52.4931 136.997 52.3277 136.842 52.1107C136.687 51.8937 136.609 51.6302 136.609 51.3202C136.609 51.0412 136.679 50.7906 136.818 50.5685C136.958 50.3411 137.165 50.1629 137.438 50.0337C137.717 49.8994 138.053 49.8322 138.446 49.8322C138.839 49.8322 139.172 49.8994 139.446 50.0337C139.725 50.1629 139.934 50.3411 140.073 50.5685C140.218 50.7906 140.29 51.0412 140.29 51.3202C140.29 51.6199 140.21 51.8834 140.05 52.1107C139.89 52.3329 139.67 52.4982 139.391 52.6067C139.712 52.7049 139.965 52.878 140.151 53.126C140.342 53.3688 140.438 53.6633 140.438 54.0095C140.438 54.3453 140.355 54.6398 140.19 54.893C140.024 55.141 139.789 55.3347 139.484 55.4742C139.185 55.6086 138.839 55.6757 138.446 55.6757C138.053 55.6757 137.707 55.6086 137.407 55.4742C137.113 55.3347 136.883 55.141 136.718 54.893C136.552 54.6398 136.47 54.3453 136.47 54.0095C136.47 53.6633 136.563 53.3662 136.749 53.1182C136.935 52.8702 137.188 52.6997 137.508 52.6067ZM139.608 51.4055C139.608 51.0903 139.505 50.8475 139.298 50.677C139.092 50.5065 138.808 50.4212 138.446 50.4212C138.089 50.4212 137.808 50.5065 137.601 50.677C137.394 50.8475 137.291 51.0929 137.291 51.4132C137.291 51.7026 137.397 51.9351 137.609 52.1107C137.826 52.2864 138.105 52.3742 138.446 52.3742C138.792 52.3742 139.071 52.2864 139.283 52.1107C139.5 51.9299 139.608 51.6948 139.608 51.4055ZM138.446 52.9167C138.064 52.9167 137.751 53.0071 137.508 53.188C137.265 53.3636 137.144 53.6297 137.144 53.9862C137.144 54.3169 137.26 54.583 137.493 54.7845C137.73 54.986 138.048 55.0867 138.446 55.0867C138.844 55.0867 139.159 54.986 139.391 54.7845C139.624 54.583 139.74 54.3169 139.74 53.9862C139.74 53.6401 139.621 53.3766 139.384 53.1957C139.146 53.0097 138.833 52.9167 138.446 52.9167Z" fill="#575757"/>
<path d="M142.281 54.0172C142.333 54.3117 142.452 54.5391 142.638 54.6992C142.829 54.8594 143.084 54.9395 143.405 54.9395C143.834 54.9395 144.149 54.7716 144.35 54.4357C144.557 54.0999 144.655 53.5341 144.645 52.7385C144.536 52.971 144.355 53.1544 144.102 53.2887C143.849 53.4179 143.568 53.4825 143.258 53.4825C142.911 53.4825 142.601 53.4127 142.328 53.2732C142.059 53.1286 141.847 52.9193 141.692 52.6455C141.537 52.3716 141.46 52.041 141.46 51.6535C141.46 51.1006 141.62 50.6563 141.94 50.3205C142.26 49.9795 142.715 49.809 143.304 49.809C144.027 49.809 144.534 50.0441 144.823 50.5142C145.118 50.9844 145.265 51.6845 145.265 52.6145C145.265 53.2655 145.205 53.8028 145.087 54.2265C144.973 54.6501 144.777 54.9731 144.498 55.1952C144.224 55.4174 143.847 55.5285 143.366 55.5285C142.839 55.5285 142.428 55.3864 142.134 55.1022C141.839 54.8181 141.671 54.4564 141.63 54.0172H142.281ZM143.374 52.8857C143.72 52.8857 144.004 52.7798 144.226 52.568C144.448 52.351 144.56 52.0591 144.56 51.6922C144.56 51.3047 144.451 50.9921 144.234 50.7545C144.017 50.5168 143.712 50.398 143.32 50.398C142.958 50.398 142.669 50.5116 142.452 50.739C142.24 50.9663 142.134 51.266 142.134 51.638C142.134 52.0151 142.24 52.3174 142.452 52.5447C142.663 52.7721 142.971 52.8857 143.374 52.8857Z" fill="#575757"/>
<path d="M151.283 55.5207L149.996 53.312H149.144V55.5207H148.438V50.119H150.182C150.59 50.119 150.934 50.1887 151.213 50.3282C151.497 50.4677 151.709 50.6563 151.848 50.894C151.988 51.1316 152.058 51.4029 152.058 51.7077C152.058 52.0797 151.949 52.4078 151.732 52.692C151.52 52.9761 151.2 53.1647 150.771 53.2577L152.127 55.5207H151.283ZM149.144 52.7462H150.182C150.564 52.7462 150.851 52.6532 151.042 52.4672C151.233 52.2761 151.329 52.0229 151.329 51.7077C151.329 51.3874 151.233 51.1394 151.042 50.9637C150.856 50.7881 150.57 50.7002 150.182 50.7002H149.144V52.7462Z" fill="#575757"/>
<path d="M157.028 53.2345C157.028 53.3688 157.021 53.5109 157.005 53.6607H153.611C153.636 54.0792 153.779 54.4073 154.037 54.645C154.3 54.8775 154.618 54.9937 154.99 54.9937C155.295 54.9937 155.548 54.924 155.75 54.7845C155.956 54.6398 156.101 54.4486 156.184 54.211H156.943C156.829 54.6191 156.602 54.9524 156.261 55.2107C155.92 55.4639 155.496 55.5905 154.99 55.5905C154.587 55.5905 154.225 55.5001 153.905 55.3192C153.59 55.1384 153.342 54.8826 153.161 54.552C152.98 54.2161 152.89 53.8286 152.89 53.3895C152.89 52.9503 152.978 52.5654 153.153 52.2347C153.329 51.9041 153.574 51.6509 153.89 51.4752C154.21 51.2944 154.577 51.204 154.99 51.204C155.393 51.204 155.75 51.2918 156.06 51.4675C156.37 51.6431 156.607 51.886 156.773 52.196C156.943 52.5008 157.028 52.847 157.028 53.2345ZM156.3 53.0872C156.3 52.8186 156.24 52.5886 156.122 52.3975C156.003 52.2011 155.84 52.0539 155.633 51.9557C155.432 51.8524 155.207 51.8007 154.959 51.8007C154.603 51.8007 154.298 51.9144 154.045 52.1417C153.797 52.3691 153.655 52.6842 153.618 53.0872H156.3Z" fill="#575757"/>
<path d="M159.54 54.8697L160.858 51.2737H161.61L159.943 55.5207H159.122L157.456 51.2737H158.215L159.54 54.8697Z" fill="#575757"/>
<path d="M162.668 50.584C162.533 50.584 162.42 50.5375 162.327 50.4445C162.234 50.3515 162.187 50.2378 162.187 50.1035C162.187 49.9691 162.234 49.8555 162.327 49.7625C162.42 49.6695 162.533 49.623 162.668 49.623C162.797 49.623 162.905 49.6695 162.993 49.7625C163.086 49.8555 163.133 49.9691 163.133 50.1035C163.133 50.2378 163.086 50.3515 162.993 50.4445C162.905 50.5375 162.797 50.584 162.668 50.584ZM163.009 51.2737V55.5207H162.304V51.2737H163.009Z" fill="#575757"/>
<path d="M168.086 53.2345C168.086 53.3688 168.078 53.5109 168.063 53.6607H164.668C164.694 54.0792 164.836 54.4073 165.094 54.645C165.358 54.8775 165.676 54.9937 166.048 54.9937C166.352 54.9937 166.606 54.924 166.807 54.7845C167.014 54.6398 167.158 54.4486 167.241 54.211H168.001C167.887 54.6191 167.66 54.9524 167.319 55.2107C166.978 55.4639 166.554 55.5905 166.048 55.5905C165.645 55.5905 165.283 55.5001 164.963 55.3192C164.647 55.1384 164.399 54.8826 164.219 54.552C164.038 54.2161 163.947 53.8286 163.947 53.3895C163.947 52.9503 164.035 52.5654 164.211 52.2347C164.386 51.9041 164.632 51.6509 164.947 51.4752C165.267 51.2944 165.634 51.204 166.048 51.204C166.451 51.204 166.807 51.2918 167.117 51.4675C167.427 51.6431 167.665 51.886 167.83 52.196C168.001 52.5008 168.086 52.847 168.086 53.2345ZM167.357 53.0872C167.357 52.8186 167.298 52.5886 167.179 52.3975C167.06 52.2011 166.897 52.0539 166.691 51.9557C166.489 51.8524 166.265 51.8007 166.017 51.8007C165.66 51.8007 165.355 51.9144 165.102 52.1417C164.854 52.3691 164.712 52.6842 164.676 53.0872H167.357Z" fill="#575757"/>
<path d="M174.674 51.2737L173.349 55.5207H172.62L171.597 52.1495L170.574 55.5207H169.846L168.513 51.2737H169.234L170.21 54.8387L171.264 51.2737H171.985L173.016 54.8465L173.977 51.2737H174.674Z" fill="#575757"/>
<path d="M176.878 55.5905C176.552 55.5905 176.26 55.5362 176.002 55.4277C175.744 55.3141 175.539 55.1591 175.39 54.9627C175.24 54.7612 175.157 54.5313 175.142 54.273H175.87C175.891 54.4848 175.989 54.6579 176.165 54.7922C176.345 54.9266 176.581 54.9937 176.87 54.9937C177.139 54.9937 177.35 54.9343 177.505 54.8155C177.66 54.6966 177.738 54.5468 177.738 54.366C177.738 54.18 177.655 54.0431 177.49 53.9552C177.325 53.8622 177.069 53.7718 176.723 53.684C176.407 53.6013 176.149 53.5186 175.948 53.436C175.751 53.3481 175.581 53.2216 175.436 53.0562C175.297 52.8857 175.227 52.6636 175.227 52.3897C175.227 52.1727 175.291 51.9738 175.421 51.793C175.55 51.6121 175.733 51.4701 175.971 51.3667C176.209 51.2582 176.48 51.204 176.785 51.204C177.255 51.204 177.635 51.3228 177.924 51.5605C178.213 51.7981 178.368 52.1236 178.389 52.537H177.684C177.668 52.3148 177.578 52.1366 177.412 52.0022C177.252 51.8679 177.035 51.8007 176.761 51.8007C176.508 51.8007 176.307 51.855 176.157 51.9635C176.007 52.072 175.932 52.2141 175.932 52.3897C175.932 52.5292 175.976 52.6455 176.064 52.7385C176.157 52.8263 176.271 52.8986 176.405 52.9555C176.544 53.0071 176.736 53.0666 176.978 53.1337C177.283 53.2164 177.531 53.2991 177.722 53.3817C177.914 53.4592 178.076 53.5781 178.211 53.7382C178.35 53.8984 178.422 54.1076 178.428 54.366C178.428 54.5985 178.363 54.8077 178.234 54.9937C178.105 55.1797 177.921 55.327 177.684 55.4355C177.451 55.5388 177.182 55.5905 176.878 55.5905Z" fill="#575757"/>
<path d="M179.198 56.9622V56.8925C179.731 56.3448 180.134 55.7067 180.407 54.9782C180.686 54.2497 180.826 53.4851 180.826 52.6842C180.826 51.8627 180.679 51.0722 180.384 50.3127C180.095 49.5481 179.661 48.8945 179.082 48.352V48.2822H179.818C180.361 48.7834 180.777 49.4215 181.066 50.1965C181.361 50.9663 181.508 51.7956 181.508 52.6842C181.508 53.5522 181.368 54.3608 181.089 55.11C180.816 55.8591 180.431 56.4766 179.935 56.9622H179.198Z" fill="#575757"/>
<path d="M100.355 53.1649C100.257 53.2595 100.212 53.3963 100.234 53.5304L100.569 55.3839C100.598 55.541 100.531 55.7 100.4 55.7908C100.271 55.885 100.1 55.8963 99.9591 55.8209L98.2905 54.9507C98.2325 54.9198 98.1681 54.9032 98.1021 54.9013H98C97.9646 54.9066 97.93 54.9179 97.8983 54.9352L96.2294 55.8096C96.1469 55.8511 96.0534 55.8658 95.9619 55.8511C95.7389 55.8089 95.5901 55.5964 95.6266 55.3722L95.9619 53.5187C95.9841 53.3834 95.9393 53.2459 95.8417 53.1499L94.4813 51.8313C94.3675 51.7209 94.328 51.5551 94.38 51.4056C94.4305 51.2564 94.5593 51.1475 94.7149 51.123L96.5873 50.8514C96.7297 50.8367 96.8548 50.7501 96.9188 50.622L97.7439 48.9304C97.7634 48.8927 97.7887 48.8581 97.8192 48.8287L97.8531 48.8023C97.8708 48.7827 97.8912 48.7665 97.9138 48.7534L97.9548 48.7383L98.0189 48.7119H98.1775C98.3191 48.7266 98.4438 48.8114 98.509 48.938L99.345 50.622C99.4053 50.7452 99.5224 50.8307 99.6577 50.8514L101.53 51.123C101.688 51.1456 101.821 51.2549 101.873 51.4056C101.922 51.5566 101.88 51.7224 101.764 51.8313L100.355 53.1649Z" fill="#FFAC37"/>
<path d="M63.8955 61.9795C53.195 61.9795 44.5205 53.305 44.5205 42.6045C44.5205 31.904 53.195 23.2295 63.8955 23.2295C74.596 23.2295 83.2705 31.904 83.2705 42.6045C83.2705 53.305 74.596 61.9795 63.8955 61.9795Z" fill="#FFDA6A"/>
<g filter="url(#filter1_f_35_665)">
<path d="M75.0907 46.4797C73.1884 46.4797 71.6463 44.9376 71.6463 43.0353C71.6463 41.133 73.1884 39.5908 75.0907 39.5908C76.993 39.5908 78.5352 41.133 78.5352 43.0353C78.5352 44.9376 76.993 46.4797 75.0907 46.4797Z" fill="#F55065"/>
</g>
<g filter="url(#filter2_f_35_665)">
<path d="M54.8544 40.8821C52.9521 40.8821 51.4099 39.3399 51.4099 37.4376C51.4099 35.5353 52.9521 33.9932 54.8544 33.9932C56.7567 33.9932 58.2988 35.5353 58.2988 37.4376C58.2988 39.3399 56.7567 40.8821 54.8544 40.8821Z" fill="#F55065"/>
</g>
<path fill-rule="evenodd" clip-rule="evenodd" d="M68.7385 35.5831C69.6202 32.8693 72.535 31.3841 75.2488 32.2659C77.9627 33.1477 79.4478 36.0624 78.566 38.7763C78.4191 39.2286 77.9333 39.4761 77.481 39.3291C77.0287 39.1822 76.7812 38.6964 76.9281 38.2441C77.516 36.4349 76.5259 34.4917 74.7166 33.9038C72.9074 33.316 70.9642 34.3061 70.3764 36.1153C70.2294 36.5676 69.7436 36.8151 69.2913 36.6681C68.839 36.5212 68.5915 36.0354 68.7385 35.5831ZM54.9607 31.2775C55.8425 28.5637 58.7572 27.0786 61.4711 27.9603C64.1849 28.8421 65.67 31.7569 64.7883 34.4707C64.6413 34.923 64.1555 35.1705 63.7032 35.0236C63.2509 34.8766 63.0034 34.3908 63.1503 33.9385C63.7382 32.1293 62.7481 30.1861 60.9389 29.5983C59.1297 29.0104 57.1865 30.0005 56.5986 31.8097C56.4517 32.262 55.9659 32.5096 55.5135 32.3626C55.0612 32.2156 54.8137 31.7298 54.9607 31.2775ZM72.847 43.8507C72.346 44.8528 69.4424 46.0557 66.8356 46.1559C63.098 46.2997 59.7951 44.5281 57.5445 40.4361C57.3153 40.0194 57.4673 39.4958 57.884 39.2666C58.3007 39.0374 58.8243 39.1895 59.0535 39.6062C60.9825 43.1134 63.6688 44.5542 66.7694 44.435C67.9275 44.3904 69.0803 44.1198 70.0788 43.7061C70.4793 43.5402 70.8301 43.3601 71.0906 43.1931C71.1976 43.1245 71.2819 43.0627 71.3368 43.0148C71.3473 43.0056 71.3397 43.0142 71.3066 43.0805C71.5193 42.6551 72.0365 42.4827 72.4619 42.6954C72.8873 42.9081 73.0597 43.4253 72.847 43.8507Z" fill="black"/>
<defs>
<filter id="filter0_d_35_665" x="0" y="0" width="266" height="125.208" filterUnits="userSpaceOnUse" color-interpolation-filters="sRGB">
<feFlood flood-opacity="0" result="BackgroundImageFix"/>
<feColorMatrix in="SourceAlpha" type="matrix" values="0 0 0 0 0 0 0 0 0 0 0 0 0 0 0 0 0 0 127 0" result="hardAlpha"/>
<feOffset dy="20"/>
<feGaussianBlur stdDeviation="20"/>
<feColorMatrix type="matrix" values="0 0 0 0 1 0 0 0 0 0.827451 0 0 0 0 0.278431 0 0 0 0.14 0"/>
<feBlend mode="normal" in2="BackgroundImageFix" result="effect1_dropShadow_35_665"/>
<feBlend mode="normal" in="SourceGraphic" in2="effect1_dropShadow_35_665" result="shape"/>
</filter>
<filter id="filter1_f_35_665" x="59.8818" y="27.8261" width="30.4181" height="30.4181" filterUnits="userSpaceOnUse" color-interpolation-filters="sRGB">
<feFlood flood-opacity="0" result="BackgroundImageFix"/>
<feBlend mode="normal" in="SourceGraphic" in2="BackgroundImageFix" result="shape"/>
<feGaussianBlur stdDeviation="5.88235" result="effect1_foregroundBlur_35_665"/>
</filter>
<filter id="filter2_f_35_665" x="39.6455" y="22.2285" width="30.4181" height="30.4181" filterUnits="userSpaceOnUse" color-interpolation-filters="sRGB">
<feFlood flood-opacity="0" result="BackgroundImageFix"/>
<feBlend mode="normal" in="SourceGraphic" in2="BackgroundImageFix" result="shape"/>
<feGaussianBlur stdDeviation="5.88235" result="effect1_foregroundBlur_35_665"/>
</filter>
</defs>
</svg>
