<svg width="263" height="9" viewBox="0 0 263 9" fill="none" xmlns="http://www.w3.org/2000/svg">
<mask id="mask0_33_249" style="mask-type:alpha" maskUnits="userSpaceOnUse" x="0" y="0" width="263" height="9">
<rect width="263" height="8.1974" fill="#C4C4C4"/>
</mask>
<g mask="url(#mask0_33_249)">
<path d="M39.5036 -1.73345L40.1464 -1.8415L38.8956 -1.99642L39.4951 -2.10981C40.0964 -2.10878 40.8754 -1.93886 41.2993 -2.02915C41.3511 -2.11656 40.6964 -2.14461 40.5293 -2.21426C40.3815 -2.28565 40.2609 -2.35656 40.1688 -2.42617C40.4963 -2.42542 40.8562 -2.40858 41.2274 -2.37665C41.7267 -2.3245 42.2163 -2.29914 42.6424 -2.30339C43.5137 -2.28931 44.3555 -2.30336 45.3027 -2.30026L44.9876 -2.51064L46.2084 -2.46142C46.3378 -2.44539 46.492 -2.47117 46.6192 -2.45134C47.6772 -2.28358 48.1249 -2.375 48.6328 -2.4508C48.737 -2.47041 48.8624 -2.48506 49.0058 -2.49435C50.4173 -2.45416 51.69 -2.21902 52.9611 -2.0983C53.2003 -2.06748 53.4298 -2.02792 53.6332 -1.98243C54.0753 -1.89398 54.5671 -1.82176 55.0636 -1.77239C55.56 -1.72302 56.0453 -1.69807 56.4751 -1.69981C57.4254 -1.70176 58.4991 -1.64326 59.5922 -1.52996C59.9173 -1.49264 60.2425 -1.46802 60.5473 -1.45767C60.852 -1.44732 61.1296 -1.45146 61.3622 -1.46984L62.1012 -1.34975C62.4216 -1.39848 62.8278 -1.42522 63.2952 -1.42833C63.7627 -1.43145 64.2815 -1.41089 64.8204 -1.36789C65.3946 -1.32125 65.9779 -1.28981 66.5737 -1.24049C67.8044 -1.14622 69.0022 -1.08856 70.1298 -1.06931C71.809 -1.01228 73.4496 -0.968179 75.1437 -0.897072C76.2035 -0.862749 77.236 -0.843872 78.2352 -0.840537C79.4322 -0.827112 80.7269 -0.762119 82.0569 -0.648698C81.9938 -0.542282 81.4106 -0.573721 81.0192 -0.577322C79.7565 -0.595009 78.4642 -0.640842 77.1651 -0.675273C76.5799 -0.688712 76.0107 -0.693803 75.461 -0.690507C74.542 -0.694919 73.5732 -0.723273 72.5712 -0.775087C70.9884 -0.8321 69.4561 -0.859505 67.99 -0.857024C67.8751 -0.852808 67.7697 -0.84534 67.6758 -0.834741C67.6562 -0.825562 67.6524 -0.813985 67.6646 -0.801126C67.6768 -0.788265 67.7048 -0.774546 67.7457 -0.761289C67.7866 -0.748032 67.8392 -0.735679 67.8983 -0.725409C67.9575 -0.715139 68.0214 -0.707293 68.0837 -0.702633C68.666 -0.630515 69.2914 -0.553058 69.8405 -0.542161C69.8617 -0.541347 69.8843 -0.539488 69.9067 -0.536716C69.9291 -0.533945 69.9507 -0.53033 69.9699 -0.526136C71.1992 -0.373888 72.2099 -0.399652 73.1675 -0.374882C74.7573 -0.307936 76.2898 -0.276665 77.7419 -0.281543C77.9614 -0.281211 78.1984 -0.272509 78.4443 -0.25575C79.9652 -0.187815 81.3873 -0.180215 82.6441 -0.233298C83.1613 -0.246746 83.6422 -0.276937 84.1981 -0.277442C84.5404 -0.27952 84.8385 -0.298785 85.0742 -0.334085C85.31 -0.369385 85.4786 -0.41999 85.5699 -0.482856C85.8044 -0.449758 86.0425 -0.42026 86.2815 -0.394716C86.4243 -0.380111 86.5612 -0.37623 86.6645 -0.383873C86.7678 -0.391517 86.83 -0.410111 86.8384 -0.435895C86.8812 -0.508106 86.5554 -0.544369 86.2728 -0.575292C86.4433 -0.590779 86.6353 -0.599889 86.8445 -0.602405C88.0221 -0.618904 89.2853 -0.59943 90.6066 -0.544409C91.6324 -0.47855 92.4512 -0.532155 93.5305 -0.439281C93.6599 -0.423255 93.7664 -0.446776 93.8855 -0.452424C94.1961 -0.482166 94.5829 -0.48885 95.0126 -0.471895C95.4422 -0.454939 95.9016 -0.414852 96.3511 -0.355112C96.9108 -0.518323 98.1198 -0.331869 99.0127 -0.315112C99.2876 -0.232111 98.9722 -0.246702 98.9586 -0.223899C98.9451 -0.201095 98.9586 -0.223903 98.8508 -0.237259C97.9593 -0.119715 96.738 -0.0940841 95.3581 -0.163969C95.1029 -0.163679 94.8598 -0.158323 94.631 -0.147956C94.2845 -0.133281 93.8939 -0.134746 93.4761 -0.152288C93.0197 -0.165171 92.6004 -0.159052 92.2385 -0.134228C92.0303 -0.134631 91.8542 -0.122196 91.7266 -0.0980641C91.599 -0.0739315 91.524 -0.0388867 91.5086 0.00381443C91.6476 0.0367334 91.8018 0.0668554 91.965 0.0929825C92.8174 0.196146 93.6674 0.238847 94.3478 0.212686C95.532 0.167611 96.9412 0.211598 98.2004 0.196209C99.0516 0.189975 99.9574 0.207732 100.901 0.249148C100.901 0.249148 100.876 0.290954 100.874 0.294754C100.985 0.312856 101.102 0.327378 101.219 0.337492C101.219 0.337492 101.219 0.337493 101.23 0.318489C101.178 0.300241 101.108 0.283074 101.028 0.268975L100.747 0.234251C100.938 0.225214 101.116 0.198309 101.315 0.214748C101.733 0.245288 102.133 0.258181 102.49 0.252661C102.848 0.24714 103.155 0.223319 103.394 0.182626C103.817 0.130472 104.344 0.106754 104.94 0.113004C105.396 0.107311 105.836 0.0950729 106.258 0.0763532C106.258 0.0763532 106.285 0.0307506 106.484 0.00651142C106.295 -0.0233831 106.098 -0.0477948 105.902 -0.065603C105.049 -0.110093 104.193 -0.150784 103.355 -0.181201C103.046 -0.184487 102.756 -0.179391 102.489 -0.166011C101.752 -0.150354 100.923 -0.172576 100.051 -0.231379C100.051 -0.231379 99.8786 -0.252746 99.7923 -0.263431C100.037 -0.36368 100.88 -0.263318 101.221 -0.33121C101.429 -0.329974 101.794 -0.321438 101.782 -0.339311C101.753 -0.363161 101.75 -0.385318 101.772 -0.404192C101.794 -0.423066 101.84 -0.438191 101.908 -0.44848C101.976 -0.458768 102.064 -0.463968 102.165 -0.463704C102.267 -0.463439 102.379 -0.457716 102.494 -0.446949C103.454 -0.388704 104.358 -0.372506 105.151 -0.399349C105.451 -0.398831 105.788 -0.381568 106.087 -0.377248C106.27 -0.372046 106.436 -0.37494 106.578 -0.385768C107.299 -0.465517 108.269 -0.471341 109.343 -0.402365C109.861 -0.377567 110.346 -0.374251 110.772 -0.392587C111.075 -0.395869 111.203 -0.339169 111.419 -0.312459L112.335 -0.256154L111.159 -0.185603C111.41 -0.0239189 111.61 0.0293933 112.021 0.0394668C112.62 0.0546773 113.203 0.0615499 113.768 0.06004C114.185 0.0587104 114.53 0.0238911 115.095 0.0857364C115.195 0.0958237 115.291 0.0990891 115.368 0.0949832C116.029 0.040079 116.826 0.0274779 117.704 0.0580411C118.159 -0.0447737 118.933 0.0551894 119.649 0.135732C119.88 0.0582859 119.461 0.0227347 119.212 -0.0245198C119.811 -0.019683 120.414 -0.0224451 121.033 -0.0111361C121.218 -0.0152533 121.431 -0.00821069 121.654 0.00943651C121.876 0.0270837 122.102 0.0548518 122.315 0.0905718C122.418 0.113652 122.543 0.131022 122.663 0.139075C122.784 0.147129 122.89 0.14525 122.961 0.133829C123.281 0.100141 123.795 0.131169 124.061 0.0742667C124.155 0.0611801 124.29 0.0593534 124.441 0.0691047C124.592 0.078857 124.75 0.0995569 124.886 0.127494C124.737 0.136211 124.604 0.149936 124.491 0.16837C124.085 0.228249 124.234 0.328299 124.75 0.473757C125.542 0.465757 126.351 0.46803 127.084 0.440614C127.494 0.416005 127.995 0.423698 128.532 0.46283C129.069 0.501961 129.621 0.570979 130.125 0.662123C130.307 0.697171 130.515 0.721444 130.707 0.730125C130.899 0.738807 131.062 0.731258 131.162 0.708976C131.224 0.683206 131.243 0.650593 131.218 0.613962L130.7 0.54986C130.7 0.54986 130.721 0.515655 130.725 0.508053L131.469 0.502307C131.863 0.502107 132.274 0.512182 132.646 0.509312C133.192 0.490223 133.816 0.500864 134.479 0.540572C135.091 0.581289 135.692 0.612067 136.277 0.632633C136.843 0.653802 137.253 0.586317 137.792 0.57554C138.199 0.567416 138.648 0.576098 139.119 0.601245C139.934 0.645845 140.682 0.645928 141.295 0.601485C142.01 0.840934 142.357 0.879865 143.021 0.815164L143.332 0.79668L143.418 0.848037L143.656 0.836744C144.102 0.826685 144.548 0.816629 145.013 0.813041C145.659 0.835263 146.358 0.895048 147.039 0.98656C147.169 1.00259 147.345 1.05704 147.459 1.09967C147.572 1.1423 147.82 1.2709 148.002 1.35462C147.804 1.41573 147.584 1.47417 147.426 1.54443C147.411 1.55643 147.412 1.57075 147.431 1.58622C147.45 1.60169 147.485 1.61789 147.535 1.63352C147.584 1.64914 147.646 1.66376 147.715 1.67619C147.784 1.68862 147.859 1.69852 147.933 1.70509C148.078 1.71926 148.221 1.72871 148.356 1.73304C149.023 1.74051 149.661 1.73496 150.265 1.71643C150.485 1.69029 150.787 1.68781 151.122 1.70938C151.457 1.73095 151.807 1.77534 152.115 1.83551C152.905 1.79938 153.823 1.81006 154.805 1.86678C155.844 1.83228 157.099 1.90204 158.07 1.82646C158.047 1.86446 158.148 1.9299 158.287 1.9676C158.508 2.02486 158.759 2.07793 159.028 2.12456L161.08 2.2156C161.157 2.26242 161.253 2.30981 161.367 2.35715C161.445 2.39456 161.581 2.43115 161.745 2.45919C161.91 2.48723 162.091 2.5045 162.25 2.50735C162.658 2.52122 163.001 2.4902 163.488 2.56684C162.738 2.63928 161.726 2.62966 160.634 2.53968C159.607 2.47125 158.619 2.43705 157.707 2.43835C157.407 2.43783 157.011 2.44183 156.917 2.48322C156.709 2.60021 156.164 2.58172 155.529 2.56014C155.029 2.53652 154.574 2.53917 154.198 2.56788C153.823 2.59658 153.539 2.65053 153.37 2.72527C153.328 2.79748 153.43 2.85912 153.868 2.90114L155.69 3.06963C155.958 3.04797 156.213 3.02232 156.453 2.99281C156.857 2.9536 157.356 2.94284 157.911 2.96136C158.466 2.97988 159.063 3.02718 159.654 3.09958C159.955 3.13698 160.257 3.17437 160.476 3.1566C160.668 3.13619 160.845 3.11176 161.006 3.08347C161.038 3.06452 161.051 3.0427 161.044 3.01886C161.16 3.02995 161.277 3.04436 161.389 3.0616C162.288 3.26274 162.985 3.25926 163.618 3.20709C163.789 3.19158 163.919 3.16693 164.093 3.14762C164.266 3.12831 164.327 3.10325 164.485 3.11054C165.742 3.17651 166.105 2.95618 167.164 2.96503C167.216 2.95643 167.248 2.94356 167.257 2.92762C167.267 2.91168 167.253 2.89318 167.218 2.87382C167.143 2.85634 167.057 2.84131 166.966 2.83011C166.876 2.81891 166.785 2.81189 166.701 2.80972C166.213 2.78144 165.782 2.79011 165.482 2.83424C165.27 2.85228 165.045 2.86664 164.809 2.87727L163.748 2.55821C164.776 2.58745 165.748 2.58726 166.642 2.55764C166.837 2.541 167.167 2.56967 167.441 2.57511L169.461 2.60494C169.876 2.60741 170.23 2.55739 170.809 2.67398C170.809 2.67398 171.191 2.69278 171.293 2.67687C171.395 2.66094 171.848 2.56193 172.117 2.49743C172.431 2.51582 172.864 2.56544 173.059 2.54881C173.4 2.50794 173.695 2.45555 173.939 2.39258L175.159 2.48248C175.157 2.56233 175.113 2.63746 175.026 2.70671C174.931 2.7735 174.934 2.85367 175.035 2.94067C175.137 3.02766 175.333 3.11902 175.609 3.20727L176.813 3.67466C177.01 3.70596 177.219 3.72703 177.414 3.73501C177.608 3.74299 177.777 3.73749 177.898 3.71925C178.416 3.66513 178.997 3.62282 179.515 3.56869C180.184 3.6515 180.012 3.78524 180.498 3.90255L182.072 4.09753C182.312 4.27821 182.557 4.4513 181.827 4.51179C181.682 4.52237 181.779 4.5916 181.647 4.62005C182.215 4.75565 182.839 4.79624 183.414 4.87976C183.641 4.93982 183.831 5.0034 183.974 5.06743C184.132 5.16383 184.451 5.26231 184.863 5.34159C185.275 5.42088 185.747 5.47461 186.177 5.49118C186.898 5.54194 187.636 5.61817 188.358 5.71647C188.605 5.75065 188.859 5.77556 189.102 5.78951C189.345 5.80346 189.573 5.80612 189.769 5.79733C190.468 5.78186 191.059 5.72863 191.505 5.64112C191.946 5.56686 192.54 5.53107 193.234 5.53699C194.42 5.6839 194.659 5.90526 195.377 6.10024L194.137 6.1221C194.092 6.19811 194.174 6.29395 193.666 6.29219C193.157 6.29044 193.415 6.36317 193.58 6.43661C193.638 6.47356 193.751 6.51156 193.901 6.54419C194.05 6.57682 194.227 6.60207 194.4 6.61566L195.455 6.70967C195.83 6.74545 196.192 6.76072 196.502 6.75382C196.813 6.74692 197.059 6.71812 197.215 6.67056C197.393 6.6254 197.64 6.59486 197.939 6.5808C198.321 6.54396 198.634 6.48917 198.869 6.41851L200.359 6.52146C200.422 6.45046 200.627 6.40067 200.938 6.38052C201.25 6.36036 201.649 6.37108 202.068 6.41086L203.072 6.47405C204.189 6.54299 204.434 6.5203 204.761 6.3201L203.422 5.96251C203.616 5.86832 203.804 5.78553 203.992 5.70274C203.659 5.58494 203.213 5.47351 202.702 5.37978C202.225 5.27907 201.734 5.18152 201.232 5.08753C200.687 4.99148 200.111 4.90796 199.435 4.79968C199.317 4.76465 199.145 4.7026 198.926 4.64282C198.706 4.58472 198.477 4.52777 198.24 4.47219C198.285 4.39618 198.325 4.32777 198.239 4.23953C198.655 4.26769 199.086 4.31693 199.491 4.38282C199.897 4.44871 200.265 4.52917 200.562 4.61696C200.611 4.63253 200.673 4.64715 200.741 4.65984C200.809 4.67253 200.883 4.68299 200.958 4.69051C201.69 4.74445 202.04 4.85713 202.398 4.9953C202.639 5.06592 202.949 5.12865 203.287 5.17476C203.934 5.25489 204.567 5.35783 205.186 5.44669C205.375 5.4763 205.572 5.50067 205.768 5.5188C206.415 5.57645 207.065 5.65706 207.687 5.75653C207.89 5.78181 208.085 5.81526 208.255 5.8541C208.426 5.89293 208.567 5.93601 208.666 5.97975C208.512 6.02766 208.429 6.08815 208.422 6.15755C208.395 6.20315 208.849 6.29613 209.064 6.36352C209.279 6.4309 208.857 6.39915 208.715 6.40593C208.128 6.41896 208.019 6.44628 208.371 6.59585C208.488 6.64288 208.566 6.68994 208.599 6.73409C208.633 6.77825 208.621 6.81857 208.566 6.85255C208.482 6.99317 208.229 7.10862 208.055 7.24616C208.325 7.33677 208.777 7.43353 208.826 7.5457C208.85 7.57058 208.9 7.59694 208.973 7.62288C209.045 7.64882 209.139 7.67368 209.247 7.69567C209.53 7.74314 209.789 7.79992 210.001 7.86159C210.213 7.92326 210.374 7.98817 210.471 8.05131C210.503 8.07742 210.579 8.10512 210.686 8.12886C210.792 8.1526 210.92 8.17062 211.043 8.17931C211.191 8.18997 211.324 8.18857 211.414 8.17538C211.503 8.16219 211.543 8.13822 211.525 8.10843C211.529 8.05247 211.509 7.99414 211.467 7.93392C211.491 7.89211 211.516 7.85031 211.418 7.78107C211.86 7.80634 212.324 7.85697 212.76 7.92748C213.196 7.99799 213.587 8.08567 213.89 8.18099C214.225 8.2796 214.534 8.38315 214.905 8.49851C214.829 8.62773 214.829 8.62773 215.619 8.85619L219.813 8.9676L220.672 9.11892C221.474 9.25082 221.664 9.24179 222.168 9.17359L222.506 9.10949C223.218 9.19763 224.038 9.29914 224.483 9.13397C224.627 9.24162 224.722 9.27779 224.689 9.29412C224.476 9.45298 224.107 9.58778 223.596 9.69316C223.465 9.71781 223.374 9.7554 223.222 9.77738C222.732 9.90144 222.618 10.0931 222.904 10.3133C223.046 10.4107 223.252 10.5104 223.516 10.6093C223.13 10.7465 222.619 10.8602 221.996 10.9473C221.467 11.0147 221.032 11.105 220.703 11.2155C220.407 11.3269 219.964 11.4107 219.399 11.462C219.113 11.4838 218.904 11.5269 218.793 11.5868C218.76 11.7491 218.836 11.9229 219.019 12.1043C219.053 12.1595 219.151 12.2191 219.304 12.2785C219.458 12.3379 219.663 12.3954 219.904 12.4465C219.904 12.4465 220.02 12.4853 220.075 12.5085C220.122 12.7051 219.948 12.8783 219.566 13.0166C219.503 13.0558 219.375 13.0841 219.195 13.0985C219.015 13.1129 218.791 13.1128 218.545 13.0982C218.027 13.0748 217.542 13.0719 217.041 13.0587C216.5 13.0401 216.024 13.0548 215.663 13.1012C215.301 13.1476 215.068 13.224 214.986 13.3224C214.981 13.3503 214.965 13.3769 214.939 13.4022C214.924 13.4152 214.915 13.4292 214.914 13.444L216.066 13.7661L214.763 13.8944C214.686 14.0236 215.312 14.1011 215.625 14.197L215.432 14.2506C215.182 14.2809 214.846 14.2229 214.542 14.1893L214.24 14.1519L214.204 14.2127C214.016 14.2955 213.33 14.2025 213.063 14.2632C212.796 14.3239 212.986 14.3924 213.387 14.4583C213.666 14.5074 213.965 14.5464 214.262 14.5727C214.559 14.5989 214.847 14.6115 215.103 14.6097C215.256 14.6032 215.383 14.5883 215.476 14.5661C216.017 14.4714 216.614 14.39 217.264 14.3225C217.762 14.2618 218.386 14.2361 219.091 14.2469C219.298 14.2423 219.548 14.2567 219.797 14.2875C220.045 14.3183 220.276 14.3635 220.45 14.4152L220.815 14.4237C220.815 14.4237 221.015 14.477 220.987 14.4858C220.848 14.6437 221.009 14.8368 221.448 15.0365L221.067 15.0545C220.522 15.036 220.867 15.1563 220.786 15.2156C220.399 15.2044 219.896 15.1544 219.713 15.2295L219.438 15.2241L219.546 15.2374L219.676 15.2128L220.189 15.3252C219.946 15.3441 219.77 15.3672 219.556 15.3773C219.437 15.3862 219.343 15.4018 219.279 15.4233C219.214 15.4447 219.181 15.4716 219.181 15.5022C219.181 15.5494 219.117 15.5891 218.995 15.6175C218.873 15.6459 218.697 15.6622 218.483 15.6646C218.227 15.6657 218.081 15.7169 217.932 15.7351L218.582 16.0441C218.582 16.0441 218.258 16.004 218.434 16.0585L218.457 16.0205L218.851 16.0978C219.135 16.1656 219.333 16.182 219.501 16.1335C219.669 16.0849 219.631 16.1495 219.711 16.1309C219.682 16.1803 219.499 16.2148 219.343 16.2444C219.162 16.2676 218.958 16.2847 218.734 16.2954C219.137 16.5127 219.157 16.5192 218.567 16.5767C217.977 16.6342 218.181 16.7206 217.687 16.7329C217.194 16.7452 217.755 16.8922 218.085 16.9209C218.33 16.9397 218.58 16.9691 218.817 17.0069C219.054 17.0448 219.274 17.0902 219.46 17.1401L219.361 17.3073C219.216 17.2935 219.07 17.2755 218.93 17.2539C218.452 17.1621 218.017 17.0756 217.592 17.129L217.794 17.256L216.31 17.1824C216.348 17.2776 216.575 17.3861 216.941 17.4849C216.886 17.5392 216.852 17.5963 216.84 17.6559C216.815 17.6977 216.668 17.6714 216.573 17.6759C216.233 17.6829 215.954 17.7113 215.761 17.7584C215.567 17.8056 215.465 17.8702 215.463 17.9465C215.425 18.0111 215.948 18.1452 216.274 18.1407C217.09 18.1536 217.972 18.2033 218.873 18.2872C219.422 18.2981 219.5 18.1282 220.403 18.2441C220.421 18.3226 220.305 18.3861 220.073 18.4251C219.841 18.4641 219.506 18.4764 219.118 18.4602C219.338 18.6345 220.562 18.6799 220.616 18.862C220.311 18.8491 219.985 18.8189 219.671 18.7742C219.356 18.7295 219.064 18.672 218.822 18.6072C218.77 18.5913 218.705 18.5766 218.632 18.5645C218.559 18.5524 218.481 18.5433 218.406 18.538C218.331 18.5327 218.26 18.5315 218.201 18.5343C218.141 18.5372 218.095 18.5441 218.066 18.5544C218.236 18.6203 218.422 18.6964 218.634 18.7676C218.847 18.8388 218.898 18.8696 219.051 18.8845C220.194 19.026 220.738 19.281 221.727 19.4483C221.985 19.4804 222.018 19.5823 221.793 19.5708C221.579 19.5593 221.386 19.5608 221.234 19.5751C221.082 19.5895 220.979 19.6161 220.934 19.6521C220.769 19.6941 220.562 19.7275 220.32 19.7514C221.334 20.0131 222.543 20.2443 223.834 20.4233C224.078 20.4586 224.333 20.4802 224.561 20.4848C225.282 20.4851 226.046 20.5058 226.84 20.5467C227.121 20.5578 227.381 20.5568 227.605 20.5436C228.342 20.5124 228.926 20.5807 229.46 20.7733L230.344 21.0786C230.315 21.128 230.166 21.1831 230.052 21.2587L230.743 21.4217L236.012 21.0462L237.069 21.4098L238.586 21.3896C238.702 21.4001 238.819 21.4145 238.931 21.4323C239.238 21.5396 239.478 21.6428 239.811 21.7452C240.143 21.8476 240.738 21.86 241.152 21.9807C241.567 22.1015 241.982 22.1039 242.495 22.1756C242.544 22.2691 242.494 22.3532 242.349 22.4227C242.302 22.5025 242.041 22.5518 241.996 22.6278C242.001 22.7046 241.904 22.7698 241.714 22.8175C241.524 22.8653 241.247 22.8939 240.908 22.901C239.959 23.0646 238.814 23.181 237.508 23.2469C237.394 23.2517 237.299 23.2627 237.229 23.2794C237.159 23.296 237.117 23.3179 237.104 23.3437C237.106 23.4182 237.019 23.4827 236.849 23.5322C236.679 23.5818 236.432 23.6153 236.124 23.6302C236.042 23.6332 235.98 23.6426 235.946 23.6571C235.829 23.6665 235.744 23.6845 235.699 23.7093C235.654 23.7341 235.65 23.7649 235.688 23.7988C235.726 23.8326 235.805 23.8684 235.916 23.9025C236.028 23.9367 236.169 23.9681 236.325 23.9938C236.552 24.0351 236.783 24.0747 237.019 24.1123C237.005 24.1351 236.772 24.1388 236.806 24.1594C236.898 24.2249 236.919 24.2864 236.868 24.3388C236.817 24.3912 236.695 24.4332 236.511 24.4614L237.77 24.9927C238.534 25.0663 239.284 25.1911 239.877 25.3434C239.878 25.3684 239.844 25.3893 239.778 25.4041C239.713 25.4189 239.618 25.427 239.503 25.4277C239.196 25.4385 238.905 25.4597 238.574 25.4717C238.372 25.4807 238.203 25.5004 238.079 25.5298C237.954 25.5592 237.875 25.5976 237.848 25.6428L238.587 25.8405C238.35 25.8886 238.175 25.9117 238.018 25.9413C238.107 26.0034 238.259 26.0677 238.464 26.1291C238.668 26.1905 238.919 26.2474 239.197 26.2954C239.272 26.3053 239.348 26.3126 239.421 26.3167C239.494 26.3209 239.563 26.3218 239.623 26.3196C240.195 26.2518 240.865 26.3715 241.516 26.4847C242.166 26.5979 242.519 26.6661 243 26.7541L243.919 26.7659C244.151 26.8076 244.359 26.8566 244.525 26.9091C244.69 26.9615 244.81 27.0159 244.874 27.0679C244.824 27.1515 244.389 27.1056 244.129 27.1143C243.513 27.1663 242.702 27.1552 241.833 27.0828C241.617 27.0561 241.396 27.0777 241.186 27.0802C240.733 27.0906 240.298 27.1076 239.883 27.1309C239.609 27.1527 239.353 27.1796 239.117 27.2116C239.054 27.318 240.047 27.4002 239.484 27.4528C239.678 27.4768 239.75 27.5103 239.85 27.4982C240.49 27.5673 241.119 27.6014 241.667 27.5967C242.717 27.582 243.91 27.6305 245.148 27.7382C246.484 27.8498 247.765 27.8966 248.887 27.8749C249.314 27.8736 249.791 27.8964 250.282 27.9417C250.862 28.0043 251.438 28.0437 251.973 28.0572C252.15 28.0577 252.347 28.0684 252.549 28.0884C252.75 28.1083 252.95 28.1371 253.132 28.1722C253.116 28.1988 252.943 28.2181 252.981 28.2311C253.535 28.4301 253.759 28.6374 254.611 28.8408C255.193 28.9129 255.861 28.9957 256.242 28.9001C256.623 28.8045 256.487 28.7223 255.729 28.4775C255.893 28.474 256.091 28.4854 256.288 28.5098C256.485 28.5343 256.669 28.5701 256.807 28.6111L257.462 28.7942L258.053 28.9694C258.001 29.0568 257.961 29.1252 257.918 29.1974C257.85 29.2741 257.925 29.3675 258.13 29.4644C258.254 29.5173 258.362 29.5702 258.453 29.6227C258.822 29.8325 258.929 30.0308 258.762 30.1953C258.441 30.432 257.994 30.6496 257.427 30.8459C256.828 31.0369 256.5 31.2778 256.006 31.4859C255.754 31.5806 255.448 31.6655 255.092 31.7398C254.415 31.9048 253.674 32.0619 252.995 32.2307C252.316 32.3996 251.55 32.5209 250.796 32.66C249.674 32.8252 248.461 32.9679 247.163 33.0872C246.361 33.1918 245.536 33.2936 244.794 33.4138C243.917 33.5493 242.886 33.6465 241.728 33.7032C240.706 33.7711 239.792 33.8714 239.005 34.0023C238.922 34.0165 238.857 34.0345 238.811 34.0558C238.669 34.1893 238.272 34.2834 237.68 34.3237C237.716 34.3628 237.762 34.4025 237.818 34.4427C237.9 34.4907 237.917 34.5355 237.867 34.5715C237.817 34.6075 237.702 34.6329 237.536 34.6445C237.063 34.6775 236.669 34.7337 236.373 34.8104C236.264 34.8297 236.197 34.8578 236.176 34.8922C236.156 34.9266 236.183 34.9664 236.256 35.0081C236.32 35.051 236.325 35.0905 236.269 35.1215C236.214 35.1524 236.101 35.1734 235.945 35.1817C235.544 35.2223 235.115 35.255 234.66 35.2795C233.692 35.3337 232.566 35.333 231.351 35.2776C231.221 35.2616 231.091 35.2863 230.94 35.2676C230.08 35.2055 229.282 35.1959 228.641 35.2399C227.89 35.257 227.105 35.2536 226.314 35.2616C225.17 35.2563 224.114 35.2889 223.177 35.3587C222.106 35.2913 221.504 35.4085 220.6 35.4107C219.765 35.4227 218.974 35.4516 218.234 35.497C217.041 35.5573 215.852 35.61 214.676 35.6806C213.573 35.7142 212.557 35.7785 211.646 35.8723C211.296 35.9147 210.664 35.8486 210.426 35.9375C210.188 36.0263 209.709 36.0159 209.321 36.0453L208.097 36.1181C207.886 36.1355 207.655 36.1464 207.406 36.1509C206.268 36.1568 205.48 36.2755 204.424 36.2997L204.317 36.2863C202.441 36.4627 200.296 36.5595 197.942 36.5738C196.567 36.628 195.064 36.6254 193.606 36.665C193.258 36.7443 192.436 36.6466 191.999 36.719C191.563 36.7914 190.85 36.7439 190.288 36.7558C189.725 36.7678 189.175 36.7975 188.574 36.7965C188.052 36.7968 187.611 36.8292 187.291 36.8906C186.562 36.9921 185.673 37.0517 184.663 37.0669C183.328 37.0933 182.066 37.1531 180.708 37.14C180.727 37.2139 180.644 37.2769 180.467 37.3223C180.289 37.3677 180.024 37.394 179.698 37.3984C178.246 37.4266 176.929 37.5001 175.458 37.5219L175.065 37.5221L170.664 37.5646C169.479 37.5728 168.336 37.5863 167.127 37.5956C166.674 37.5395 166.663 37.6361 166.35 37.6177C166.262 37.5701 166.159 37.5492 166.005 37.575L165.971 37.632L160.949 37.7076C158.983 37.7629 156.915 37.7795 154.762 37.7572C154.252 37.7628 153.775 37.7817 153.34 37.8136C152.937 37.8252 152.516 37.8304 152.081 37.829C151.492 37.8146 150.917 37.8074 150.357 37.8073C148.886 37.829 147.342 37.8173 145.731 37.8014C144.12 37.7854 142.9 37.8137 141.466 37.8116C140.495 37.8096 139.528 37.8 138.523 37.7775C138.043 37.767 137.452 37.7101 136.955 37.6894C136.458 37.6686 136.295 37.6689 136.23 37.7016C136.013 37.7931 135.47 37.7339 135.035 37.725C134.188 37.7098 134.067 37.6785 133.837 37.442L134.877 37.3668C135.132 37.3425 135.452 37.3383 135.808 37.3544C136.163 37.3705 136.541 37.4066 136.906 37.459C137.049 37.4814 137.199 37.4992 137.347 37.5112C137.495 37.5232 137.638 37.5292 137.767 37.5289C138.817 37.5161 139.851 37.4892 140.86 37.4672L141.007 37.4529L141.016 37.2419C140.883 37.2212 140.744 37.204 140.606 37.1911L135.549 37.0542C134.388 37.0206 133.183 36.9448 132.044 36.9139C130.904 36.8829 130.291 36.864 129.407 36.832C129.034 36.8138 128.653 36.7899 128.269 36.7604C128.291 36.7401 128.304 36.7185 128.307 36.6958C128.327 36.6616 128.354 36.616 128.191 36.5794C128.012 36.5278 127.774 36.4837 127.523 36.456C127.287 36.4376 127.059 36.4273 126.847 36.4252C125.821 36.4076 124.649 36.2961 123.582 36.1147L123.209 36.2358C121.606 36.1677 119.979 36.1008 118.304 36.0362C117.969 36.0186 117.617 35.9848 117.274 35.9373C116.908 35.8919 116.571 35.7971 116.185 35.7452C115.803 35.7078 115.424 35.6787 115.055 35.6584C115.155 35.6272 115.287 35.6023 115.447 35.5844C115.603 35.5782 115.718 35.5587 115.773 35.5288C115.828 35.499 115.821 35.4603 115.753 35.4184C115.634 35.3465 115.581 35.2788 115.841 35.2702C116.081 35.2538 116.253 35.2183 116.336 35.1679C116.419 35.1175 116.41 35.0543 116.311 34.9857C116.267 34.9456 116.236 34.9063 116.218 34.8682L116.11 34.8548C115.755 34.7129 115.044 34.6616 114.534 34.5454C114.294 34.5117 114.045 34.4923 113.826 34.4903C113.262 34.4654 112.713 34.4545 112.13 34.423C111.851 34.4086 111.56 34.3822 111.273 34.3455C110.863 34.2947 110.82 34.2894 110.582 34.1049C110.952 34.1081 111.245 34.0805 111.412 34.0269C111.578 33.9732 111.609 33.8967 111.498 33.8103C111.193 33.6216 110.871 33.4226 109.492 33.2886C109.942 33.282 110.375 33.2688 110.789 33.2492C110.909 33.245 110.999 33.2312 111.047 33.2095C111.095 33.1879 111.098 33.1595 111.056 33.1281C111.014 33.0967 110.93 33.0639 110.813 33.034C110.696 33.0042 110.554 32.9786 110.404 32.9609C109.676 32.8542 108.917 32.7827 108.211 32.7546C107.617 32.7422 107.08 32.7491 106.386 32.7488L105.566 32.6473C105.58 32.6245 105.459 32.5933 105.49 32.5808C105.698 32.4638 105.928 32.3494 106.165 32.2237C105.787 32.1558 105.459 32.0739 105.22 31.9872C104.981 31.9006 104.839 31.8128 104.811 31.7338C104.791 31.71 104.796 31.6883 104.827 31.6703C104.858 31.6522 104.913 31.6383 104.989 31.6294C105.205 31.6141 105.371 31.5849 105.476 31.5441C105.58 31.5033 105.62 31.4519 105.592 31.394L104.954 31.1804C103.035 31.028 101.151 30.9191 99.3361 30.8558L97.6978 30.8079C97.5001 30.7508 97.5613 30.7257 97.7473 30.7243C97.9334 30.7229 98.4564 30.7387 98.8218 30.7472C99.1372 30.7584 99.4175 30.7511 99.6352 30.7259C99.8529 30.7007 100.001 30.6585 100.064 30.6033L99.5144 30.3598C99.5414 30.3142 99.5797 30.2496 99.878 30.2539C100.082 30.2486 100.232 30.2257 100.304 30.1887C100.377 30.1518 100.367 30.103 100.277 30.0503C100.263 30.0122 100.283 29.9775 100.337 29.9477C100.779 29.9452 101.218 29.9466 101.618 29.935C101.805 29.9311 101.962 29.917 102.08 29.8936C102.197 29.8701 102.273 29.838 102.3 29.7992C102.315 29.7614 102.28 29.7183 102.198 29.6734C102.116 29.6285 101.989 29.5831 101.828 29.5408C101.201 29.4886 100.627 29.4879 100.232 29.539C100.092 29.579 99.8657 29.6009 99.5842 29.6017C99.3027 29.6025 98.9788 29.5823 98.6554 29.5436C98.2851 29.499 97.9156 29.4794 97.6133 29.4883C97.3109 29.4972 97.0957 29.5341 97.0062 29.5922C96.6261 29.5696 96.2891 29.5524 95.9566 29.5275C95.5644 29.4961 95.1936 29.4869 94.8844 29.5008C94.3896 29.5106 93.8566 29.5049 93.2972 29.4837C91.6849 29.4309 90.0704 29.3819 88.5093 29.3599C88.0963 29.3536 87.739 29.3705 87.3306 29.3567C86.9221 29.3428 86.599 29.3803 86.0881 29.3048C85.9909 29.293 85.8929 29.2855 85.8022 29.2827C85.7114 29.28 85.6302 29.2821 85.5651 29.2889C84.6681 29.3486 83.6163 29.3571 82.4716 29.3138C80.9037 29.3031 79.2779 29.2731 77.7078 29.2663C77.2473 29.2722 76.8121 29.2879 76.4068 29.3132C76.0983 29.3286 75.7753 29.339 75.4393 29.3444C75.1818 29.3492 74.9355 29.335 74.9789 29.4179C75.0224 29.5008 74.6365 29.4489 74.4141 29.4336C73.6499 29.3934 72.8689 29.339 72.0798 29.271C71.3023 29.197 70.5404 29.154 69.8399 29.1445C69.3339 29.1389 68.8121 29.16 68.1616 29.0468C68.1864 29.005 68.2111 28.9632 68.3528 28.9195C67.8223 28.7994 67.217 28.696 66.5869 28.618C65.9569 28.54 65.3203 28.4895 64.7297 28.4708L63.9153 28.2434C63.7148 28.2167 63.5101 28.1973 63.3136 28.1863C63.1172 28.1753 62.9331 28.173 62.7726 28.1794C62.6486 28.1827 62.4974 28.1743 62.3469 28.1556C62.1963 28.137 62.0565 28.1094 61.9531 28.0779C61.7984 28.0379 61.6096 28.0034 61.4101 27.9787C61.2106 27.954 61.0094 27.9402 60.8317 27.939C60.2721 27.9143 59.6748 27.8572 59.1009 27.7736C58.952 27.7246 58.8586 27.674 58.8324 27.628C58.8062 27.582 58.8483 27.5426 58.9535 27.5147C59.123 27.4654 59.2182 27.4027 59.2333 27.3302C59.2484 27.2577 59.183 27.1771 59.0413 27.0931C58.9686 27.0416 58.9444 26.9928 58.9699 26.9497C58.9955 26.9066 59.0703 26.87 59.1899 26.8423C59.6363 26.714 59.5169 26.6421 58.7865 26.4292C58.6679 26.3938 58.5249 26.3606 58.3665 26.3319C58.2082 26.3031 58.0381 26.2794 57.8669 26.2623C57.4652 26.2276 57.069 26.2018 56.6856 26.1854C56.4699 26.1587 56.2488 26.1802 56.0003 26.1698C54.7579 26.1179 54.576 26.0342 54.1736 25.8538L53.8804 25.7237C53.3365 25.6183 52.7417 25.5307 52.1388 25.4673C51.5359 25.4039 50.9399 25.3663 50.3938 25.3571C50.1767 25.3565 49.9272 25.3384 49.6834 25.3059C48.89 25.2063 48.0866 25.1374 47.3262 25.1037C46.8524 25.0847 46.3417 25.0357 45.8554 24.9624C45.3691 24.8892 44.9279 24.7948 44.5847 24.6907C44.2765 24.5969 43.8733 24.5128 43.4311 24.4499C42.9135 24.3858 42.8656 24.3105 43.1546 24.2525C43.4437 24.1945 43.9277 24.1198 44.3574 24.0588C44.5069 24.0381 44.5996 24.0043 44.625 23.9614C44.6505 23.9184 44.6078 23.868 44.5016 23.8156C44.4334 23.7259 44.4216 23.6408 44.4664 23.5623C44.4904 23.5297 44.4738 23.4924 44.4179 23.4527C44.362 23.4131 44.268 23.3721 44.1423 23.3326C44.0165 23.293 43.862 23.2558 43.689 23.2235C43.516 23.1912 43.3287 23.1644 43.1396 23.1451C42.3416 23.0463 41.5653 22.9501 40.7515 22.8779C40.4105 22.8438 40.0699 22.8016 39.7379 22.7523C39.0584 22.6304 38.3315 22.5293 37.5993 22.4548C37.2518 22.4216 36.9121 22.3634 36.6537 22.2928C35.8385 22.1029 35.0874 21.9031 34.4139 21.6972C34.2516 21.6334 34.0392 21.5711 33.7901 21.5142C33.5409 21.4574 33.2604 21.4073 32.9661 21.367C32.7289 21.3376 32.5357 21.2729 32.3529 21.2298C32.22 21.1302 32.2058 21.0379 32.3117 20.9619C32.4175 20.8858 32.6399 20.8283 32.9579 20.7948C33.2595 20.7547 33.5418 20.708 33.8025 20.6587C34.1168 20.6189 34.4904 20.5949 34.9094 20.5878C35.4058 20.5664 35.7728 20.5052 35.9626 20.4122C34.6039 20.244 33.3119 20.0024 32.121 20.0588L31.2161 19.906C31.2521 19.8452 31.2837 19.792 31.3129 19.7425C31.5281 19.6526 31.5954 19.5392 31.5089 19.4119C31.4376 19.3503 31.4441 19.2943 31.5275 19.2495C31.611 19.2046 31.7686 19.1726 31.9843 19.1567C33.2621 18.9926 34.7398 18.8819 35.9381 18.6958C36.3138 18.6609 36.7536 18.645 37.2391 18.6489C37.7087 18.6377 37.6891 18.5537 37.1486 18.45C36.8453 18.3959 36.5361 18.344 36.2222 18.2945C34.8382 18.2863 34.2743 18.5346 32.6949 18.4655L31.9628 18.1382C31.7649 18.1331 31.5727 18.1311 31.3876 18.1322L28.7393 18.2652C28.5187 18.2719 28.347 18.2946 28.2437 18.3309C28.1404 18.3671 28.1096 18.4154 28.1548 18.4702C28.1727 18.5373 28.1362 18.5989 28.0467 18.6526C27.9889 18.6903 28.0259 18.7403 28.1494 18.7918C28.4279 18.9079 28.0706 18.9249 27.845 18.954C27.7873 18.9569 27.7208 18.9566 27.6493 18.9531C27.5778 18.9497 27.5028 18.9432 27.4286 18.934C27.3543 18.9248 27.2824 18.9131 27.2169 18.8996C27.1514 18.8861 27.0937 18.871 27.047 18.8552C26.6495 18.7448 26.3018 18.6283 25.911 18.5065C26.1885 18.3899 25.862 18.1985 26.2949 18.093C26.3434 18.0719 26.3627 18.0463 26.3519 18.0176C26.341 17.9889 26.3002 17.9577 26.2318 17.9261C26.0555 17.8444 25.9716 17.7648 25.9884 17.6953C26.0052 17.6257 26.1222 17.5687 26.3277 17.53L26.3524 17.4882C25.8107 17.3477 25.9542 17.2227 25.7414 17.0739L25.2203 16.9768C23.9238 16.7427 23.9215 16.7465 22.8052 16.7551C22.5802 16.6661 22.8661 16.6525 23.0805 16.6424L24.8759 16.5425C26.0497 16.4757 27.2577 16.4295 28.569 16.4043C29.8803 16.379 31.3423 16.2949 32.6977 16.2343C32.7662 16.2296 32.8186 16.2203 32.8505 16.2073C32.8824 16.1942 32.8929 16.1777 32.8811 16.1591C32.8272 16.1391 32.7567 16.1197 32.6748 16.1025C32.5928 16.0853 32.5015 16.0707 32.4076 16.0597C31.9763 16.0063 31.5337 15.9719 31.0741 15.9272L30.2172 15.8496L29.9536 15.7476C29.782 15.6855 29.6648 15.6098 29.4366 15.5653C29.2485 15.532 29.0444 15.5068 28.8454 15.4922C28.6464 15.4776 28.4598 15.4741 28.3052 15.4822C27.8765 15.5026 27.4886 15.532 27.0792 15.5588C26.6698 15.5857 26.4442 15.6148 26.0891 15.628C25.3678 15.6339 24.6707 15.6497 24.0008 15.6753C23.4366 15.7357 22.9147 15.8074 22.4385 15.8897C22.1414 15.9223 21.8636 15.9613 21.3563 15.9189C21.1157 15.8804 20.9081 15.8299 20.7704 15.7762C20.6327 15.7226 20.5738 15.6693 20.6041 15.6258C20.6313 15.5918 20.7083 15.5648 20.828 15.5475C20.9476 15.5302 21.1058 15.5231 21.2877 15.5269C21.7969 15.5206 22.2678 15.4996 22.6908 15.4641C23.2796 15.3998 23.9964 15.3721 24.7993 15.3826C25.0716 15.3918 25.2542 15.3573 25.4923 15.346C25.7305 15.3347 25.9323 15.3067 26.1979 15.3273C27.0228 15.3805 27.4184 15.299 27.9128 15.246C28.0802 15.2225 28.1838 15.1845 28.2125 15.1362C28.2411 15.0879 28.1935 15.0312 28.075 14.9723C27.8468 14.855 27.5677 14.7371 27.2419 14.6203C27.0743 14.5629 26.8595 14.5084 26.6145 14.4611C26.3694 14.4137 26.1007 14.3748 25.8295 14.3475C25.6671 14.2756 25.5805 14.205 25.5775 14.1419C25.5744 14.0789 25.6551 14.0254 25.8121 13.9863C26.2121 13.8972 26.5668 13.8065 27.4632 13.8563C27.8847 13.8753 28.2813 13.879 28.6374 13.8671C29.4272 13.8508 30.3382 13.8864 31.2845 13.9706C31.5294 13.9921 31.7701 14.0068 31.9994 14.0142C33.6355 14.0659 35.1944 14.0917 36.7577 14.1099C37.5859 14.1187 38.4208 14.116 39.2854 14.1415C41.3129 14.1968 43.1585 14.1684 45.1155 14.1864C46.1405 14.1957 47.0579 14.1584 47.8196 14.0766C47.9679 14.0492 48.0953 14.0172 48.2003 13.981C47.6955 13.886 47.1411 13.8108 46.59 13.7625C46.039 13.7143 45.5099 13.6946 45.0533 13.7055C44.8024 13.7321 44.4779 13.7369 44.1163 13.7195C43.7547 13.7021 43.37 13.6631 43.0052 13.6068L44.0658 13.575C44.7691 13.5601 45.4894 13.5555 46.1734 13.5342C47.2601 13.4974 48.2672 13.4385 49.3924 13.4147C50.3009 13.3928 51.1139 13.3369 51.8058 13.2486C52.3057 13.1842 52.8766 13.1385 53.5069 13.1125C53.955 13.0986 53.955 13.0986 54.2414 12.9669C54.0142 12.8816 53.7203 12.8697 53.4435 12.868C51.7839 12.8144 50.2046 12.805 48.7377 12.84C47.9975 12.8431 47.3409 12.8793 46.7993 12.9467C46.6667 12.9752 46.3275 12.9617 46.0552 12.9524C45.2015 12.9384 44.3856 12.9425 43.6173 12.9646C42.555 13.0016 41.3719 12.9928 40.114 12.9387C39.8755 12.8724 40.15 12.8779 40.1635 12.8551C41.1378 12.8126 42.0929 12.7636 43.0865 12.7276C43.3581 12.7147 43.6484 12.7084 43.9542 12.7086C45.0959 12.7309 46.0472 12.669 46.675 12.5315C46.7066 12.4783 47.1195 12.4846 47.302 12.4501C47.3918 12.4202 47.4516 12.385 47.4796 12.3456C47.2138 12.2474 46.9131 12.2469 46.6817 12.2468C46.0102 12.2577 45.3641 12.2785 44.7467 12.309C44.1727 12.338 43.5373 12.3458 42.8578 12.3321C42.3564 12.3189 41.9276 12.3393 41.4217 12.3337C41.1472 12.322 40.8631 12.3033 40.5751 12.2778C40.8958 12.2094 41.3316 12.1673 41.852 12.1545C42.2466 12.1136 42.74 12.1013 42.8031 11.9949C42.6167 11.9187 42.4091 11.9175 42.2424 11.9254C41.8953 11.9251 41.5601 11.9299 41.2385 11.9398C40.5564 11.9614 39.818 11.9617 39.0387 11.9407C38.6284 11.9328 38.239 11.9352 37.8771 11.9477C37.057 11.9645 36.2709 12.0017 35.52 12.0189C33.9818 12.0364 32.5788 12.0993 31.1008 12.1324C30.7718 12.1406 30.4769 12.1694 30.0433 12.1198C29.6098 12.0702 29.5905 12.0637 29.5393 12.0329C29.418 11.9815 29.3812 11.9316 29.4366 11.8937C29.5226 11.8583 29.6902 11.8385 29.9094 11.838C31.2307 11.7816 32.4839 11.7025 33.6612 11.601C34.1793 11.5807 34.6332 11.5392 35.0072 11.4781C35.3038 11.4359 35.6556 11.4081 36.0517 11.3953C36.6276 11.3648 37.2281 11.3425 37.8506 11.3284C38.1403 11.3209 38.3865 11.2983 38.575 11.2621C38.7634 11.2259 38.8902 11.1767 38.9478 11.1176L38.1847 10.9211C38.0648 10.9119 37.9458 10.904 37.8283 10.8973L31.4942 11.0389L30.8669 11.0428C30.1793 11.0311 30.0113 11.0021 29.3591 10.7745C30.8475 10.7209 32.0175 10.5648 32.7526 10.3217C32.5759 10.2956 32.3948 10.2731 32.2134 10.2549C31.024 10.1975 29.8996 10.1822 28.8836 10.2097C28.2801 10.2125 27.6596 10.205 27.0367 10.2013C27.2189 10.0892 27.9167 10.1226 28.3715 10.0973C29.4582 10.0578 30.4191 9.97612 31.2236 9.85495C31.501 9.8077 31.848 9.77749 32.2487 9.7657C32.6498 9.76164 32.9848 9.73304 33.2246 9.6824C33.4644 9.63175 33.6018 9.5606 33.6247 9.47512C33.6624 9.39773 33.7439 9.32582 33.8677 9.26045C33.6486 9.1677 33.3008 9.07888 32.8894 9.01066C32.4781 8.94244 32.0315 8.8995 31.6335 8.88991C30.7838 8.85172 29.9026 8.7892 29.0121 8.70395C28.5686 8.66095 28.1336 8.63627 27.7355 8.63151C27.3845 8.62785 26.9855 8.5968 26.5993 8.54308C26.2132 8.48937 25.8612 8.41594 25.5969 8.33401C25.2403 8.23272 24.9074 8.1303 24.5746 8.02788C24.2417 7.92547 23.8555 7.79604 23.467 7.67041C23.1244 7.65076 22.7908 7.63813 22.4708 7.6327C22.2218 7.6373 21.9312 7.6236 21.6334 7.59322C21.3355 7.56284 21.0428 7.51704 20.7899 7.46123C20.9382 7.40617 21.106 7.35759 21.2827 7.29381C21.0401 7.20958 20.8643 7.12368 20.7658 7.04135C20.6673 6.95902 20.6483 6.88198 20.71 6.81492C20.746 6.75411 20.4823 6.65211 20.3912 6.57147C20.274 6.50196 20.2519 6.43709 20.328 6.38536C20.4041 6.33363 20.5748 6.29747 20.8177 6.28161C21.119 6.25234 21.3641 6.20825 21.5432 6.15117C21.6024 6.13635 21.6326 6.11606 21.6309 6.09214C21.6292 6.06823 21.5957 6.04146 21.5335 6.01428C21.4713 5.9871 21.3824 5.96037 21.2749 5.93655C21.1674 5.91273 21.0447 5.89258 20.9181 5.87793C20.5301 5.83639 20.1449 5.80947 19.7844 5.79871C19.1634 5.77891 18.5689 5.76648 18.0009 5.7614C17.3727 5.75376 16.6738 5.70662 15.9753 5.62475C15.3499 5.54729 14.7891 5.47784 14.4833 5.32982C14.1775 5.1818 13.6886 5.18652 13.3126 5.07876C13.5238 4.98162 13.8992 4.91413 14.4009 4.8831C14.7291 4.87202 15.0032 4.84294 15.2054 4.79773C15.4076 4.75252 15.5335 4.69218 15.575 4.62057L14.4336 4.32009C13.522 4.17864 13.0177 4.28751 12.0327 4.2308L13.0476 4.11988C13.068 4.10891 13.0756 4.09604 13.0701 4.08187C12.9716 3.85753 12.8148 3.80956 11.7774 3.68515L11.1951 3.61304L10.2735 3.52745C10.1259 3.48148 10.0239 3.43353 9.97748 3.38841C9.9311 3.34329 9.94204 3.30258 10.0092 3.27035C10.1442 3.21614 10.1853 3.14687 10.1286 3.06891C10.0392 3.01728 10.0319 2.96967 10.1078 2.93436C10.1837 2.89905 10.338 2.87826 10.5441 2.87561C10.7086 2.8715 10.7208 2.81182 10.8103 2.77803C10.8992 2.73145 11.0514 2.69571 11.2564 2.67324C11.4615 2.65077 11.7146 2.64208 11.9986 2.64779C12.8359 2.65245 13.6225 2.63497 14.3444 2.59565L14.215 2.57962C14.9674 2.61414 15.6709 2.61833 16.2911 2.59198C16.9126 2.55881 17.7103 2.58009 18.3704 2.55986C18.9079 2.5645 19.317 2.5186 19.5111 2.43189C19.6991 2.3491 20.3821 2.36843 20.9051 2.38425C21.215 2.39449 21.5144 2.39883 21.8003 2.39721C22.184 2.37848 22.6638 2.39614 23.1596 2.44726C23.3084 2.46297 23.4549 2.47129 23.5851 2.47141C24.8456 2.49289 26.1038 2.51818 27.3472 2.52939C27.6342 2.52293 27.9707 2.53772 28.3173 2.57203C28.463 2.58693 28.6047 2.5931 28.7236 2.58971C30.6883 2.55564 32.9053 2.64257 34.8314 2.59556C35.0649 2.58445 35.3233 2.58215 35.5994 2.58869C36.2199 2.61631 36.7587 2.59854 37.1341 2.53807C37.3366 2.50591 37.5963 2.48819 37.8965 2.48604C38.1967 2.48388 38.5309 2.49735 38.8777 2.52557C39.4549 2.56294 39.9883 2.56699 40.4217 2.5373C41.2667 2.50987 42.1554 2.49859 43.0807 2.50355C43.3643 2.50835 43.6135 2.49769 43.8091 2.4724C44.0048 2.44711 44.1415 2.40786 44.2088 2.3577C43.9816 2.27244 43.7331 2.26206 43.4972 2.26956C42.5827 2.25013 41.6705 2.2269 40.7732 2.21775C39.9699 2.1916 39.1992 2.1836 38.4724 2.19388C38.1115 2.20548 37.6611 2.17903 37.2196 2.12032C36.6785 2.04595 36.1212 2.00901 35.6604 2.01695C35.3188 2.01892 34.9582 2.01252 34.5838 1.99783C34.3441 1.98011 34.0985 1.94969 33.8721 1.90969C33.7823 1.89232 33.6845 1.87771 33.585 1.8668C33.4855 1.85589 33.3866 1.84893 33.2945 1.84635C33.2023 1.84376 33.119 1.84562 33.0498 1.8518C32.9807 1.85798 32.9273 1.86836 32.893 1.88225C32.5463 1.99842 31.7712 1.93914 31.1075 1.92629C30.1129 1.72967 29.3726 1.84604 28.443 1.73499C28.3695 1.72763 28.2971 1.72317 28.2302 1.72189C28.1633 1.72062 28.1033 1.72256 28.0539 1.72758C26.2549 1.79443 24.1582 1.73872 22.2695 1.7618C22.0612 1.76518 21.8194 1.75361 21.5717 1.72841C19.9525 1.56163 18.3957 1.51428 17.2057 1.59563C17.0609 1.60295 16.8962 1.60326 16.719 1.59655C15.9054 1.53026 15.1274 1.50384 14.4498 1.51947C13.388 1.51442 12.367 1.51852 11.2881 1.5032C10.5443 1.48139 9.89186 1.50469 9.39605 1.57075C9.38028 1.59735 9.05001 1.56869 8.79701 1.56591C8.65151 1.49893 8.52537 1.43844 8.37537 1.37906C8.24127 1.30561 8.0404 1.23128 7.78643 1.16111C7.53246 1.09094 7.23135 1.02658 6.90338 0.972379C6.34266 0.902932 6.28658 0.802157 6.67894 0.765082C7.69025 0.642418 8.96191 0.592213 10.4004 0.618152C11.603 0.620224 12.8271 0.624974 14.0467 0.637319C14.758 0.64791 15.5079 0.671435 16.2 0.675554C16.4335 0.684606 16.6734 0.697943 16.9171 0.715425C17.2162 0.74077 17.5066 0.754581 17.7727 0.756114C18.627 0.734768 19.5804 0.753365 20.5875 0.811012C20.9564 0.823584 21.3106 0.827819 21.6449 0.82366C22.4356 0.808011 23.293 0.819527 24.1941 0.857903C24.7542 0.879543 25.2972 0.890858 25.8177 0.891727C26.0015 0.894093 26.1511 0.875915 26.3282 0.889681C27.8864 1.03372 28.9898 0.929679 30.3922 0.985066C31.0738 1.00051 31.725 1.00055 32.3366 0.985199C33.5302 0.98594 34.7572 1.00173 36.0124 1.03251C37.6724 1.08307 39.2106 1.06553 40.7955 1.0864C41.1084 1.09079 41.4105 1.09004 41.6997 1.08416C43.1062 1.04531 44.6339 1.05355 46.2455 1.10868C46.6114 1.11665 46.9401 1.1069 47.2109 1.08008C47.4818 1.05325 47.6889 1.00991 47.8194 0.952771C47.8746 0.913557 47.8388 0.86262 47.719 0.80979C47.5201 0.74232 47.2954 0.676214 47.0488 0.61256L38.0777 0.398966C37.701 0.387813 37.3335 0.381808 36.9773 0.380979C35.9296 0.379121 34.8496 0.362503 33.7428 0.33121C32.649 0.301817 31.6042 0.307034 30.5446 0.298185C30.2325 0.29522 29.9121 0.288225 29.5848 0.277221C27.3723 0.190121 25.215 0.136921 23.1279 0.118004C22.2498 0.115321 21.3013 0.0753466 20.4061 0.0623907C19.511 0.0494347 18.2869 0.0446898 17.225 0.0396395L13.9374 0.0404149C13.2908 0.0378376 12.6612 0.0455297 12.0338 0.0494237C11.2726 -0.228443 11.0102 -0.293572 9.99437 -0.41531C9.64683 -0.460215 9.29333 -0.487015 8.97531 -0.492566C7.96689 -0.470601 6.70157 -0.562039 5.74528 -0.549933C5.16825 -0.555906 4.6786 -0.525037 4.32649 -0.460488C4.02082 -0.40983 3.67129 -0.369745 3.28328 -0.34084C2.22041 -0.578549 2.12674 -0.732933 2.92626 -0.793011C3.14288 -0.806978 3.44126 -0.802658 3.59768 -0.832237C3.68744 -0.850252 3.81005 -0.860555 3.95575 -0.862337C4.10145 -0.864118 4.2662 -0.857329 4.4371 -0.8425C4.97645 -0.803601 5.48197 -0.794452 5.90295 -0.815974C6.29914 -0.844457 6.78478 -0.843321 7.31305 -0.812669C7.70124 -0.76459 8.04244 -0.832478 8.37816 -0.852093C8.71387 -0.871706 8.98937 -0.90694 9.51371 -0.854236C9.60973 -0.843743 9.70505 -0.837442 9.79237 -0.835821C9.87969 -0.8342 9.95669 -0.837297 10.0174 -0.84488C10.5806 -0.878822 11.2526 -0.875257 11.979 -0.834473C13.0929 -0.79434 14.1382 -0.792836 15.0783 -0.83001C15.6411 -0.862537 16.1209 -0.920218 16.499 -1.00081C16.6021 -1.02776 16.7551 -1.04392 16.9435 -1.04774C17.8894 -1.03093 18.9165 -0.967646 19.9586 -0.86198C20.3511 -0.81964 20.7432 -0.78615 21.1263 -0.762223C21.9139 -0.709067 22.6755 -0.679282 23.3888 -0.673747C24.4253 -0.672869 25.5044 -0.652418 26.6166 -0.612578C27.303 -0.590395 27.9644 -0.582207 28.5929 -0.588104C29.2389 -0.590884 29.9287 -0.573963 30.6465 -0.537734C31.3604 -0.508211 31.9895 -0.525221 32.458 -0.586705C32.6122 -0.619838 32.7365 -0.659182 32.8284 -0.704004C31.7832 -0.84985 30.7022 -0.923972 29.8031 -0.911444C29.4616 -0.921104 29.178 -0.911351 28.8181 -0.96816L28.8069 -0.949158C28.7352 -0.936827 28.6272 -0.933917 28.5033 -0.940986C28.3794 -0.948053 28.2484 -0.964601 28.1351 -0.987478C28.1779 -1.05969 28.2185 -1.1281 28.2477 -1.17751C28.9328 -1.16879 29.598 -1.1695 30.2399 -1.17963C30.7809 -1.19421 31.5154 -1.06652 31.9838 -1.11458C32.8973 -1.05448 33.4789 -1.13747 34.298 -1.11352C35.1172 -1.08957 36.0195 -1.01047 36.8386 -0.986519C37.5534 -0.973378 38.2475 -0.970522 38.917 -0.977963C39.148 -0.988408 39.4144 -0.985958 39.6998 -0.970762C40.1009 -0.942172 40.474 -0.937381 40.7763 -0.956941C41.0785 -0.976502 41.2978 -1.01963 41.4089 -1.08137C41.3042 -1.1392 41.1633 -1.21377 41.0007 -1.29102C41.2998 -1.35449 41.754 -1.38121 42.2959 -1.36722L43.0617 -1.37028C43.2646 -1.36861 43.4197 -1.38577 43.4949 -1.41821C43.5702 -1.45066 43.5598 -1.4959 43.4659 -1.54459C42.0139 -1.7897 41.9604 -1.81672 40.8947 -1.65906L39.4798 -1.73232L39.5036 -1.73345ZM58.6424 -1.06014L58.5346 -1.07349L58.6424 -1.06014ZM234.977 25.018L234.952 25.0599L234.979 25.0142L235.217 25.0436L235.232 25.017L234.977 25.018ZM200.534 6.69413C200.199 6.64853 199.86 6.60659 199.521 6.5686C199.432 6.56271 199.348 6.56137 199.278 6.56472C199.207 6.56806 199.152 6.57598 199.116 6.58779C199.089 6.6334 199.278 6.66505 199.451 6.68641C199.668 6.71517 199.891 6.73345 200.095 6.73936C200.299 6.74526 200.477 6.73859 200.611 6.72002L200.806 6.70338L200.534 6.69413ZM27.8286 17.8097C28.0494 17.8174 28.2587 17.8187 28.4515 17.8134C29.3067 17.7766 30.1255 17.723 31.0023 17.6888C32.1085 17.602 33.3798 17.5666 34.7682 17.5841C35.3106 17.5926 35.7689 17.5644 36.0895 17.5029C36.2815 17.4699 36.5292 17.4507 36.8176 17.4463L40.4882 17.3461C40.7151 17.3253 40.9113 17.2961 41.0721 17.2593C40.7486 17.2192 40.5329 17.1925 40.4035 17.1765C40.1351 17.172 39.9043 17.1842 39.7344 17.2119C39.5518 17.2589 39.2433 17.2775 38.8701 17.264C38.4933 17.2528 38.1259 17.2468 37.7697 17.246C37.0969 17.2483 36.4197 17.2583 35.7447 17.2644C35.4821 17.3951 34.707 17.3358 34.0433 17.3229L33.5305 17.3288C31.8545 17.3965 30.2535 17.4897 28.7353 17.6079C28.4419 17.6279 28.1891 17.6598 27.9847 17.7026C27.9077 17.736 27.8831 17.7776 27.9126 17.8242L27.8048 17.8109L27.8286 17.8097ZM102.674 30.3023C103.08 30.3112 103.504 30.3295 103.938 30.3569C104.272 30.3848 104.598 30.4018 104.903 30.4071C106.613 30.4364 108.394 30.5041 110.223 30.6092C110.463 30.6251 110.693 30.6329 110.904 30.6323L112.402 30.6056C112.873 30.5906 112.882 30.5754 112.539 30.3738C112.254 30.3346 111.966 30.2989 111.676 30.2669C111.504 30.2455 111.224 30.2108 111.158 30.2435C110.758 30.3326 110.028 30.2749 109.414 30.256C107.638 30.2073 105.805 30.1353 104.011 30.0764C103.632 30.0619 103.265 30.0546 102.913 30.0546C102.695 30.0515 102.496 30.0572 102.324 30.0714C102.274 30.0728 102.232 30.0771 102.201 30.0838C102.17 30.0905 102.151 30.0995 102.144 30.1103C102.138 30.1211 102.145 30.1334 102.164 30.1463C102.183 30.1593 102.215 30.1726 102.257 30.1854C102.403 30.2303 102.573 30.2733 102.76 30.313L102.674 30.3023ZM115.689 1.03641L117.44 1.0125C117.649 1.00994 117.827 0.983029 118.052 0.994536C119.251 1.03101 120.36 1.02085 121.334 0.964492C121.666 0.941494 122.053 0.936895 122.476 0.950949C123.771 0.992596 124.993 0.99431 126.108 0.956041C126.828 0.94836 127.503 0.922564 128.121 0.879035C128.169 0.86893 128.198 0.855212 128.208 0.838815C128.218 0.822418 128.207 0.803728 128.177 0.784021C128.17 0.771571 128.148 0.758176 128.115 0.744763C128.082 0.731351 128.038 0.718232 127.986 0.706321C127.933 0.694409 127.874 0.683987 127.812 0.675763C127.75 0.66754 127.687 0.661712 127.627 0.658689C126.846 0.599768 126.104 0.579242 125.463 0.598776C124.868 0.622148 124.228 0.628988 123.553 0.619186C122.906 0.616608 122.467 0.692818 121.668 0.634667C121.33 0.615518 121.032 0.621822 120.824 0.652523C120.406 0.703411 119.822 0.706242 119.176 0.660511C118.79 0.637367 118.42 0.627442 118.082 0.631115C117.262 0.647845 116.478 0.681319 115.718 0.713663C115.479 0.721145 115.222 0.722178 114.953 0.716737L111.148 0.653402C110.233 0.633974 109.321 0.610746 108.423 0.60159C107.69 0.581709 107.007 0.587935 106.399 0.620049C105.75 0.653803 105.043 0.667505 104.291 0.6609C103.123 0.679371 101.961 0.686436 100.689 0.683951C99.878 0.68548 99.0476 0.680539 98.2001 0.665324C97.7714 0.645741 97.4074 0.661688 97.1782 0.710096C97.0388 0.749948 96.7108 0.717481 96.4385 0.708233C94.9861 0.61909 93.6239 0.597968 92.4473 0.646338C92.297 0.65422 92.1321 0.657073 91.9561 0.654849C90.8227 0.653188 89.6485 0.642384 88.5606 0.642264C88.2742 0.646022 88.0046 0.656335 87.7553 0.67307C87.782 0.700372 87.8581 0.729965 87.9678 0.75571C88.0776 0.781454 88.2125 0.801377 88.3447 0.811341C89.3736 0.887619 90.3671 0.927914 91.2834 0.930536C92.8086 0.920818 94.4063 0.942665 96.0597 0.99584C97.3427 1.04945 98.5126 1.03816 99.4822 0.962819C100.24 0.906599 101.226 0.927752 102.271 1.02264C102.718 1.06796 103.152 1.08608 103.513 1.07453C103.861 1.05938 104.26 1.06305 104.688 1.08534C105.588 1.12772 106.454 1.14738 107.269 1.14393C108.065 1.12833 108.808 1.08571 109.626 1.07278C110.444 1.05985 111.689 1.06726 112.698 1.04529C113.706 1.02333 114.703 1.02037 115.689 1.03641ZM43.1612 -1.18662C43.2536 -1.06911 43.5806 -0.995966 43.9324 -0.964632C45.1454 -0.825496 46.3445 -0.76629 47.3285 -0.796948C47.8601 -0.839711 48.5687 -0.82325 49.3151 -0.750798C50.1843 -0.675483 50.9967 -0.662993 51.6091 -0.715529C51.7592 -0.724708 51.8741 -0.744114 51.9436 -0.772019C51.9571 -0.794821 51.9819 -0.836626 51.9864 -0.844227C51.922 -0.863505 51.8431 -0.881366 51.7557 -0.896434C51.6683 -0.911503 51.5748 -0.923374 51.4823 -0.931133L47.4647 -1.06565L46.7645 -1.09525C45.4858 -1.17281 44.2672 -1.2037 43.1612 -1.18662ZM51.0639 0.673329C51.6909 0.865218 51.6931 0.861409 52.0144 0.905275C53.5641 1.08748 55.1128 1.18584 56.4762 1.18864C56.7792 1.18809 57.0364 1.16956 57.2259 1.13463C57.3234 1.1299 57.3855 1.11485 57.3986 1.09278C57.4117 1.07071 57.3747 1.0434 57.2958 1.01681L56.7971 0.881629C55.8916 0.823104 54.9991 0.776601 54.1249 0.742403C53.1071 0.702018 52.2052 0.700459 51.1501 0.684008L51.0639 0.673329ZM102.598 29.4526C103.183 29.7167 103.185 29.7129 104.163 29.781C104.845 29.8293 105.506 29.8576 106.127 29.8652C106.886 29.8735 107.664 29.8883 108.421 29.9005C108.606 29.9089 108.763 29.9019 108.861 29.8809C108.959 29.8598 108.991 29.8263 108.952 29.7867C108.852 29.7437 108.697 29.7021 108.511 29.6687C108.325 29.6353 108.119 29.612 107.926 29.6026L107.513 29.5963C107.012 29.5831 106.491 29.5635 106.007 29.5606C105.692 29.5716 105.328 29.5631 104.943 29.5359C104.557 29.5087 104.161 29.4634 103.785 29.4037L102.598 29.4526ZM54.1838 -0.841315C54.3398 -0.795578 54.5163 -0.751772 54.7085 -0.711064C55.4526 -0.598233 56.2402 -0.534148 56.9169 -0.531375C57.2368 -0.524385 57.5294 -0.549341 57.8552 -0.513076C58.4394 -0.464616 59.0056 -0.438802 59.5232 -0.437033C59.5232 -0.437033 59.6683 -0.447614 59.7159 -0.449873L59.8151 -0.617097C59.57 -0.655837 59.3145 -0.687485 59.0602 -0.710584C58.2069 -0.755075 57.3684 -0.785492 56.5322 -0.819709C55.696 -0.853928 55.4044 -0.869647 54.8575 -0.884343C54.6136 -0.876265 54.3879 -0.861851 54.1838 -0.841315ZM35.7053 19.948L36.822 20.2902C37.1833 20.32 37.5209 20.3254 37.7833 20.3056C38.0458 20.2858 38.2187 20.2419 38.2758 20.1806C38.3678 20.152 38.377 20.1095 38.3015 20.0621C38.226 20.0147 38.0716 19.9661 37.8709 19.9265C37.6776 19.8795 37.457 19.8374 37.2227 19.8028C36.9883 19.7682 36.7453 19.7417 36.5087 19.7252L35.7053 19.948ZM45.0026 18.2438C44.2723 18.1857 43.5737 18.162 42.9603 18.1744C42.5739 18.2084 42.0503 18.1975 41.4968 18.1441C40.4903 18.0376 39.52 18.0081 38.7908 18.0619C38.7908 18.0619 38.7637 18.1075 38.6401 18.1207C38.5165 18.134 39.0067 18.1661 39.1146 18.1795C39.9054 18.2122 40.7008 18.2372 41.3883 18.249C41.8152 18.2485 42.2667 18.2592 42.735 18.2811C43.3795 18.3149 43.9906 18.3258 44.5446 18.3135C44.5446 18.3135 44.759 18.3034 45.0004 18.2476L45.0026 18.2438ZM123.001 0.416305C122.653 0.351845 122.274 0.299454 121.895 0.263069C121.516 0.226683 121.145 0.207246 120.811 0.206212C120.555 0.202849 120.348 0.219868 120.223 0.254579C120.098 0.28929 120.061 0.339714 120.119 0.397874C120.378 0.429927 120.723 0.472662 120.917 0.496701C121.589 0.494348 122.163 0.46344 123.001 0.416305ZM188.303 5.84836C188.024 5.79647 187.715 5.7568 187.414 5.73387C187.112 5.71095 186.829 5.70569 186.598 5.71871C186.479 5.72436 186.56 5.78332 186.539 5.81753C186.526 5.82528 186.526 5.83493 186.54 5.84545C186.553 5.85598 186.58 5.867 186.616 5.87735C186.653 5.88771 186.698 5.89702 186.747 5.90432C186.796 5.91161 186.848 5.91662 186.896 5.91881C187.2 5.94116 187.486 5.94782 187.73 5.93818C187.974 5.92854 188.168 5.90291 188.294 5.86357L188.303 5.84836ZM192.679 6.59016C192.635 6.55954 192.543 6.52763 192.419 6.50027C192.295 6.47291 192.147 6.45194 192.003 6.44121C191.748 6.43977 191.516 6.44826 191.317 6.46637C191.1 6.48033 191.256 6.56898 191.549 6.62158C191.673 6.64269 191.806 6.65916 191.936 6.66967C192.067 6.68019 192.191 6.68446 192.301 6.68215C192.41 6.67984 192.501 6.671 192.565 6.65635C192.63 6.6417 192.668 6.62164 192.674 6.59776L192.679 6.59016ZM65.5422 -0.515626C64.8894 -0.625031 64.387 -0.597508 63.8343 -0.64148C63.2816 -0.685452 63.1455 -0.690079 63.2195 -0.619715C63.2936 -0.549352 63.6724 -0.563622 63.9097 -0.534241C64.2302 -0.495254 64.5526 -0.472867 64.8409 -0.46958C65.1293 -0.466291 65.3721 -0.482234 65.5422 -0.515626ZM201.568 17.996C201.222 17.9714 200.883 17.9541 200.557 17.9442C200.514 17.9544 200.487 17.9677 200.478 17.9834C200.468 17.999 200.477 18.0167 200.503 18.0354C200.503 18.0354 200.724 18.0914 200.854 18.1074C201.33 18.1624 201.354 18.0837 201.568 17.996ZM250.436 28.1892C250.67 28.2631 250.78 28.3133 250.967 28.3487C251.053 28.361 251.142 28.37 251.227 28.3749C251.312 28.3798 251.392 28.3806 251.459 28.3771C251.542 28.3558 251.561 28.3233 251.513 28.2859C251.513 28.2859 251.275 28.2196 251.184 28.2166C250.925 28.2009 250.674 28.1917 250.436 28.1892ZM54.431 -1.14115C53.935 -1.20258 53.4605 -1.26135 53.117 -1.18966C53.9047 -1.1125 53.9047 -1.1125 54.431 -1.14115ZM62.4648 -0.439867C61.9639 -0.571252 61.67 -0.583175 61.4296 -0.568079C61.3785 -0.564277 61.3447 -0.555802 61.3332 -0.543942C61.3218 -0.532082 61.3334 -0.517481 61.3663 -0.502345C61.3992 -0.48721 61.4515 -0.472367 61.5155 -0.460058C61.5794 -0.447749 61.6514 -0.438646 61.7206 -0.434127C61.9818 -0.430345 62.2309 -0.432266 62.4648 -0.439867ZM88.243 -0.384309C88.2543 -0.403312 88.2678 -0.426116 88.1384 -0.442141C88.1045 -0.450276 88.0648 -0.457273 88.0232 -0.462431C87.9815 -0.467589 87.9395 -0.470721 87.9012 -0.471519C87.9012 -0.471519 87.8877 -0.448715 87.8787 -0.433512L88.243 -0.384309ZM106.144 31.1646L105.856 31.1819L105.985 31.198L106.327 31.2076L106.144 31.1646ZM207.577 6.29364C207.47 6.28029 207.362 6.26693 207.346 6.29353C207.323 6.29766 207.309 6.3036 207.305 6.31087C207.3 6.31815 207.306 6.32653 207.321 6.33534C207.321 6.33534 207.472 6.35404 207.537 6.36205L207.577 6.29364ZM190.784 6.50642C190.713 6.50489 190.649 6.50667 190.596 6.51166L190.582 6.53446L190.798 6.56117L190.784 6.50642ZM44.4331 11.9397C44.3498 11.9259 44.2615 11.9149 44.1743 11.9077L44.0664 11.8943C44.0664 11.8943 44.1823 11.9331 44.247 11.9412C44.3117 11.9492 44.3639 11.9393 44.4331 11.9397Z" fill="currentColor"/>
</g>
</svg>
