<svg width="133" height="91" viewBox="0 0 133 91" fill="none" xmlns="http://www.w3.org/2000/svg">
<path opacity="0.1" d="M68.2618 46.4517C68.2618 46.4517 68.0373 38.0245 73.6291 35.2939C79.2209 32.5634 80.1163 32.8097 80.1163 32.8097C80.1163 32.8097 81.2337 35.2939 80.5628 36.2416C79.8918 37.1919 79.458 35.9899 79.458 35.7677C79.458 35.5456 80.7998 33.321 84.2376 33.321C87.6755 33.321 89.4789 35.1467 89.4789 35.1467C89.4789 35.1467 89.436 37.0152 88.4725 37.8612C88.4725 37.8612 89.8572 36.0354 92.0793 36.1693C92.0793 36.1693 95.1817 38.8838 96.2309 40.8862C96.2309 40.8862 93.5472 44.8482 88.7651 45.2925C88.7651 45.2925 91.1965 45.7824 91.8271 46.449C91.8271 46.449 83.3977 49.6989 81.7205 48.1837C80.0432 46.6685 82.4746 46.714 83.1884 47.4716C83.9022 48.2292 85.3273 50.4083 85.3273 50.4083C85.3273 50.4083 78.492 52.3224 77.1502 48.9386L77.5285 51.6103C77.5285 51.6103 71.069 50.32 69.1824 48.1382C67.2958 45.9564 73.6695 42.7065 76.9408 41.9061C80.2122 41.1057 86.6287 40.5275 88.5583 40.9263M66.5845 45.5602C66.5845 45.5602 63.3131 39.1515 56.5208 38.5277C56.5208 38.5277 55.5144 40.7523 56.8562 42.0453C56.8562 42.0453 54.4248 37.2829 46.119 39.5075C46.119 39.5075 47.6299 43.3356 48.7195 43.2473C49.8091 43.159 49.9352 41.5554 48.7623 41.5126C47.587 41.4671 42.6182 41.4912 39.9143 44.5831C39.9143 44.5831 42.0103 46.275 43.6876 46.0073C43.6876 46.0073 40.5852 46.275 37.9848 53.3075C37.9848 53.3075 43.6876 55.8881 46.7925 54.7317C46.7925 54.7317 45.7029 58.1154 44.4443 58.2921C44.4443 58.2921 51.4889 58.0244 52.2859 55.4437C53.0829 52.8631 50.4825 53.8402 50.6515 54.6433C50.8205 55.4464 52.581 58.2921 52.581 58.2921C52.581 58.2921 57.1942 58.5598 59.2902 54.7317C59.2902 54.7317 59.8779 57.1356 58.8715 57.936C58.8715 57.936 67.4269 51.9717 67.1747 47.3431C66.9225 42.7146 48.548 47.8812 46.5705 49.9478M50.9819 43.159C50.9819 43.159 56.266 44.6715 56.0995 47.5198M60.7127 47.5198C60.7127 47.5198 59.7063 51.3479 55.0932 52.3277M83.9451 37.4302C83.9451 37.4302 78.8501 39.2131 78.4214 42.2086M74.3833 44.3154C74.3833 44.3154 81.2614 45.2069 84.6992 43.9594M72.8472 33.8698C72.8472 33.8698 76.7617 27.817 74.6355 22.9502C74.6355 22.9502 71.9518 24.0184 71.9518 24.9687C71.9518 24.9687 74.1891 15.3556 70.9454 10.9626C70.9454 10.9626 69.2682 11.6747 69.0437 13.2167C69.0437 13.2167 64.2338 5.73978 62.3345 4.90723C62.3345 4.90723 61.2727 6.92569 61.6636 9.35909C61.6636 9.35909 58.7 2.82987 55.2899 2C55.2899 2 54.0036 4.4334 54.45 6.09582C54.45 6.09582 48.8582 2.12047 46.9564 3.54463C46.9564 3.54463 45.2791 8.35253 46.9564 10.8448C46.9564 10.8448 45.7811 10.371 44.8327 11.0242C44.8327 11.0242 43.9373 17.3151 49.4181 21.0549C49.4181 21.0549 46.7899 20.6989 46.5655 21.5288C46.341 22.3586 47.4609 26.6927 53.3881 29.4232C53.3881 29.4232 50.649 29.541 50.48 30.0175C50.48 30.0175 54.17 36.5468 56.2383 37.4355M67.4774 41.9409C67.4774 41.9409 55.6228 16.7771 54.6165 13.2167C53.6101 9.65624 58.1955 9.59734 59.3684 12.4457C61.4795 17.5721 59.3684 26.4652 59.3684 26.4652M68.6527 25.0276C68.6527 25.0276 68.4837 33.6342 65.1292 35.9471M65.1292 53.0398C65.1292 53.0398 60.9624 57.7567 61.4669 61.9408C61.4669 61.9408 65.2401 62.4762 66.1633 61.3171C66.1633 61.3171 62.39 63.6327 62.4732 71.2863C62.4732 71.2863 64.8214 71.554 66.1633 69.6827C66.1633 69.6827 62.4732 73.3315 65.5756 80.1873C65.5756 80.1873 68.1735 78.3187 68.2593 76.3592C68.2593 76.3592 66.9174 80.8994 71.3641 85.7956C71.3641 85.7956 72.7892 85.1719 73.2937 82.9473C73.2937 82.9473 75.8108 87.3081 79.5841 89C79.5841 89 83.3574 85.9723 83.0219 79.4752C83.0219 79.4752 84.8682 80.7227 86.6287 81.0787C86.6287 81.0787 88.9769 76.7179 87.1332 71.0186C87.1332 71.0186 89.2292 72.6221 90.1523 72.0867C90.1523 72.0867 88.8105 62.6502 84.4495 60.87C84.4495 60.87 86.9667 61.1377 87.4687 60.4256C87.4687 60.4256 84.7749 52.325 79.7531 51.6129M68.6527 49.4794C68.6527 49.4794 72.4613 52.7721 75.2686 63.6327C78.0758 74.4933 79.0822 77.786 77.9926 79.3012C76.903 80.8164 74.0503 80.7254 74.2193 78.4098C74.3883 76.0942 74.5548 67.2815 77.7429 65.3246M74.3833 55.0877C74.3833 55.0877 71.1119 57.4916 70.3578 62.1202C69.6036 66.7487 69.8533 68.976 69.8533 68.976M76.4818 27.2227C76.4818 27.2227 78.6635 21.9999 83.5264 19.7164C83.5264 19.7164 84.8682 20.2518 85.0372 23.4696C85.0372 23.4696 87.5544 16.5415 93.4237 16.0061C99.2954 15.4707 100.302 17.0742 100.302 17.0742C100.302 17.0742 103.238 22.6049 100.302 21.5609C97.3659 20.5168 102.148 17.6096 104.663 17.7863C107.177 17.963 114.56 20.1608 118.25 25.0276L116.573 29.003C116.573 29.003 121.103 27.2227 122.445 27.5788C123.786 27.9348 130.496 36.8974 131 41.9409C131 41.9409 125.968 48.2346 118.921 48.4112C118.921 48.4112 118.081 50.9009 119.592 52.6811C119.592 52.6811 104.691 54.5202 107.962 51.3158C111.233 48.1114 108.466 56.4797 109.528 58.2948C109.528 58.2948 100.05 60.3373 96.2334 56.4208L94.7655 59.9813C94.7655 59.9813 89.668 59.3308 86.379 55.085M123.282 38.5277C111.372 34.5229 97.9511 37.9388 97.9511 37.9388C97.9511 37.9388 99.1264 45.2015 109.024 46.8077M112.043 28.6469C112.043 28.6469 106.676 31.1499 106.005 37.556M96.2334 24.1951C96.2334 24.1951 92.5837 26.2804 90.9065 32.8043M51.8218 34.4935C51.8218 34.4935 43.5186 25.8575 35.7703 29.7713L37.102 32.3144C37.102 32.3144 32.277 29.0806 24.791 30.8581C17.305 32.6357 17.1385 36.4905 17.1385 36.4905C17.1385 36.4905 19.7465 41.3359 20.7983 38.8195C21.85 36.3032 15.1409 38.5786 13.3122 39.5423C11.4811 40.506 6.82505 44.5269 5.82624 47.7366C5.82624 47.7366 11.3172 48.0552 11.4836 48.6977C11.6501 49.3402 3.16528 51.5888 2 60.0241C2 60.0241 4.82743 63.1562 9.48601 64.4412C9.48601 64.4412 13.3122 63.9914 13.6452 62.6101C13.6452 62.6101 13.4232 65.512 12.5909 66.2883C12.5909 66.2883 14.586 68.4567 20.9647 69.3668C20.9647 69.3668 28.8619 67.3832 26.491 66.0313C24.12 64.6794 25.931 70.6009 24.6245 72.258C24.6245 72.258 28.4507 75.1492 36.2142 73.8642C36.2142 73.8642 39.874 72.7399 41.2057 70.0629C41.2057 70.0629 41.7051 73.3824 41.2612 74.5067C41.2612 74.5067 53.7387 72.1509 54.682 65.7234C55.6254 59.296 55.8473 66.7942 55.8473 67.7044C55.8473 67.7044 61.7241 64.5456 62.279 61.3305M36.7237 50.1299C36.7237 50.1299 20.0618 50.2477 8.20723 58.7953M13.0146 46.8077C13.0146 46.8077 24.0873 48.2105 27.4418 53.088M35.9418 53.088C35.9418 53.088 35.1599 57.3712 29.2326 63.1883M28.1128 39.5664C28.1128 39.5664 31.2429 38.9721 35.9418 39.5664C40.6382 40.1607 41.6446 41.6946 41.6446 41.6946" stroke="#F54748" stroke-width="2" stroke-miterlimit="10"/>
</svg>
